M48
; DRILL file {KiCad (5.1.6)-1} date 01/16/21 21:27:13
; FORMAT={-:-/ absolute / inch / decimal}
; #@! TF.CreationDate,2021-01-16T21:27:13+01:00
; #@! TF.GenerationSoftware,Kicad,Pcbnew,(5.1.6)-1
; #@! TF.FileFunction,Plated,1,2,PTH
FMAT,2
INCH
T1C0.0118
T2C0.0157
T3C0.0276
T4C0.0394
%
G90
G05
T1
X2.645Y-2.5605
X2.706Y-2.5605
X2.789Y-2.5614
X2.8504Y-2.5591
X2.891Y-2.238
X2.891Y-2.317
X2.8976Y-2.748
X2.9724Y-2.6417
X2.978Y-2.517
X3.004Y-2.368
X3.132Y-2.453
X3.184Y-2.565
X3.184Y-2.801
T2
X2.247Y-2.203
T3
X2.5481Y-2.1494
X2.5481Y-2.2205
X2.5899Y-2.092
X2.5899Y-2.278
X2.6575Y-2.07
X2.6575Y-2.2999
X2.7251Y-2.092
X2.7251Y-2.278
X2.7668Y-2.1494
X2.7668Y-2.2205
T4
X2.5079Y-2.74
X2.5079Y-2.84
X2.6079Y-2.74
X2.6079Y-2.84
X2.7079Y-2.74
X2.7079Y-2.84
X2.8079Y-2.74
X2.8079Y-2.84
T4
G00X2.0538Y-2.4006
M15
G01X2.0538Y-2.4794
M16
G05
G00X2.1325Y-2.625
M15
G01X2.2113Y-2.625
M16
G05
G00X2.29Y-2.4006
M15
G01X2.29Y-2.4794
M16
G05
T0
M30
