%TF.GenerationSoftware,KiCad,Pcbnew,(5.1.6)-1*%
%TF.CreationDate,2021-01-16T21:26:58+01:00*%
%TF.ProjectId,hardware-smart-gaz-detector-extension-board,68617264-7761-4726-952d-736d6172742d,rev?*%
%TF.SameCoordinates,Original*%
%TF.FileFunction,Copper,L2,Bot*%
%TF.FilePolarity,Positive*%
%FSLAX46Y46*%
G04 Gerber Fmt 4.6, Leading zero omitted, Abs format (unit mm)*
G04 Created by KiCad (PCBNEW (5.1.6)-1) date 2021-01-16 21:26:58*
%MOMM*%
%LPD*%
G01*
G04 APERTURE LIST*
%TA.AperFunction,ComponentPad*%
%ADD10R,1.700000X1.700000*%
%TD*%
%TA.AperFunction,ComponentPad*%
%ADD11O,1.700000X1.700000*%
%TD*%
%TA.AperFunction,ComponentPad*%
%ADD12R,3.500000X3.500000*%
%TD*%
%TA.AperFunction,ComponentPad*%
%ADD13O,1.200000X1.600000*%
%TD*%
%TA.AperFunction,ComponentPad*%
%ADD14O,1.200000X1.200000*%
%TD*%
%TA.AperFunction,ViaPad*%
%ADD15C,0.600000*%
%TD*%
%TA.AperFunction,ViaPad*%
%ADD16C,0.800000*%
%TD*%
%TA.AperFunction,Conductor*%
%ADD17C,0.150000*%
%TD*%
%TA.AperFunction,Conductor*%
%ADD18C,0.250000*%
%TD*%
%TA.AperFunction,Conductor*%
%ADD19C,0.254000*%
%TD*%
G04 APERTURE END LIST*
D10*
%TO.P,J1,1*%
%TO.N,PWM_PolySi*%
X63700000Y-69596000D03*
D11*
%TO.P,J1,2*%
%TO.N,+12V*%
X63700000Y-72136000D03*
%TO.P,J1,3*%
%TO.N,+3V3*%
X66240000Y-69596000D03*
%TO.P,J1,4*%
%TO.N,GND*%
X66240000Y-72136000D03*
%TO.P,J1,5*%
%TO.N,ADC1_Temperature*%
X68780000Y-69596000D03*
%TO.P,J1,6*%
%TO.N,I2C_SCL*%
X68780000Y-72136000D03*
%TO.P,J1,7*%
%TO.N,ADC0_Gaz*%
X71320000Y-69596000D03*
%TO.P,J1,8*%
%TO.N,I2C_SDA*%
X71320000Y-72136000D03*
%TD*%
D12*
%TO.P,J2,1*%
%TO.N,+12V*%
X58166000Y-61976000D03*
%TO.P,J2,2*%
%TO.N,GND*%
%TA.AperFunction,ComponentPad*%
G36*
G01*
X50666000Y-62976000D02*
X50666000Y-60976000D01*
G75*
G02*
X51416000Y-60226000I750000J0D01*
G01*
X52916000Y-60226000D01*
G75*
G02*
X53666000Y-60976000I0J-750000D01*
G01*
X53666000Y-62976000D01*
G75*
G02*
X52916000Y-63726000I-750000J0D01*
G01*
X51416000Y-63726000D01*
G75*
G02*
X50666000Y-62976000I0J750000D01*
G01*
G37*
%TD.AperFunction*%
%TO.P,J2,3*%
%TO.N,N/C*%
%TA.AperFunction,ComponentPad*%
G36*
G01*
X53416000Y-67551000D02*
X53416000Y-65801000D01*
G75*
G02*
X54291000Y-64926000I875000J0D01*
G01*
X56041000Y-64926000D01*
G75*
G02*
X56916000Y-65801000I0J-875000D01*
G01*
X56916000Y-67551000D01*
G75*
G02*
X56041000Y-68426000I-875000J0D01*
G01*
X54291000Y-68426000D01*
G75*
G02*
X53416000Y-67551000I0J875000D01*
G01*
G37*
%TD.AperFunction*%
%TD*%
D13*
%TO.P,U1,1*%
%TO.N,+3V3*%
X67500000Y-52578000D03*
D14*
%TO.P,U1,2*%
%TO.N,Net-(U1-Pad2)*%
X65783667Y-53135670D03*
%TO.P,U1,3*%
%TO.N,Net-(U1-Pad3)*%
X64722915Y-54595670D03*
%TO.P,U1,4*%
%TO.N,ADC1_Temperature*%
X64722915Y-56400330D03*
%TO.P,U1,5*%
%TO.N,Net-(Q1-Pad2)*%
X65783667Y-57860330D03*
%TO.P,U1,6*%
%TO.N,+3V3*%
X67500000Y-58418000D03*
%TO.P,U1,7*%
%TO.N,u_gaz*%
X69216333Y-57860330D03*
%TO.P,U1,8*%
%TO.N,GND*%
X70277085Y-56400330D03*
%TO.P,U1,9*%
X70277085Y-54595670D03*
%TO.P,U1,10*%
X69216333Y-53135670D03*
%TD*%
D15*
%TO.N,GND*%
X67183006Y-65037810D03*
X80873600Y-71145400D03*
X73431400Y-56845200D03*
X73431400Y-58851800D03*
X76301600Y-60147200D03*
X79552800Y-62306200D03*
D16*
X57073800Y-55956200D03*
D15*
X70840491Y-65059509D03*
X73600000Y-69799992D03*
%TO.N,ADC0_Gaz*%
X75500000Y-67100000D03*
X72400000Y-65000002D03*
%TO.N,aop_-*%
X75641200Y-63931800D03*
X80873600Y-65151000D03*
%TO.N,ADC1_Temperature*%
X68732500Y-65037898D03*
%TD*%
D17*
%TO.N,ADC0_Gaz*%
X74499998Y-67100000D02*
X72400000Y-65000002D01*
X75500000Y-67100000D02*
X74499998Y-67100000D01*
D18*
%TO.N,aop_-*%
X75641200Y-63931800D02*
X76860400Y-65151000D01*
X76860400Y-65151000D02*
X80873600Y-65151000D01*
%TO.N,ADC1_Temperature*%
X64722915Y-61028313D02*
X68732500Y-65037898D01*
X64722915Y-56400330D02*
X64722915Y-61028313D01*
%TD*%
D19*
%TO.N,GND*%
G36*
X80765136Y-50458967D02*
G01*
X81058643Y-50547582D01*
X81329350Y-50691520D01*
X81566945Y-50885298D01*
X81762379Y-51121535D01*
X81908202Y-51391230D01*
X81998865Y-51684115D01*
X82033000Y-52008883D01*
X82033001Y-72043107D01*
X82001034Y-72369131D01*
X81912419Y-72662641D01*
X81768479Y-72933353D01*
X81574703Y-73170945D01*
X81338462Y-73366380D01*
X81068770Y-73512202D01*
X80775885Y-73602865D01*
X80451117Y-73637000D01*
X52020883Y-73637000D01*
X51694869Y-73605034D01*
X51401359Y-73516419D01*
X51130647Y-73372479D01*
X50893055Y-73178703D01*
X50697620Y-72942462D01*
X50551798Y-72672770D01*
X50461135Y-72379885D01*
X50427000Y-72055117D01*
X50427000Y-72015151D01*
X62473000Y-72015151D01*
X62473000Y-72256849D01*
X62520153Y-72493903D01*
X62612647Y-72717202D01*
X62746927Y-72918167D01*
X62917833Y-73089073D01*
X63118798Y-73223353D01*
X63342097Y-73315847D01*
X63579151Y-73363000D01*
X63820849Y-73363000D01*
X64057903Y-73315847D01*
X64281202Y-73223353D01*
X64482167Y-73089073D01*
X64653073Y-72918167D01*
X64787353Y-72717202D01*
X64836231Y-72599202D01*
X64895843Y-72767252D01*
X65044822Y-73017355D01*
X65239731Y-73233588D01*
X65473080Y-73407641D01*
X65735901Y-73532825D01*
X65883110Y-73577476D01*
X66113000Y-73456155D01*
X66113000Y-72263000D01*
X66093000Y-72263000D01*
X66093000Y-72009000D01*
X66113000Y-72009000D01*
X66113000Y-71989000D01*
X66367000Y-71989000D01*
X66367000Y-72009000D01*
X66387000Y-72009000D01*
X66387000Y-72263000D01*
X66367000Y-72263000D01*
X66367000Y-73456155D01*
X66596890Y-73577476D01*
X66744099Y-73532825D01*
X67006920Y-73407641D01*
X67240269Y-73233588D01*
X67435178Y-73017355D01*
X67584157Y-72767252D01*
X67643769Y-72599202D01*
X67692647Y-72717202D01*
X67826927Y-72918167D01*
X67997833Y-73089073D01*
X68198798Y-73223353D01*
X68422097Y-73315847D01*
X68659151Y-73363000D01*
X68900849Y-73363000D01*
X69137903Y-73315847D01*
X69361202Y-73223353D01*
X69562167Y-73089073D01*
X69733073Y-72918167D01*
X69867353Y-72717202D01*
X69959847Y-72493903D01*
X70007000Y-72256849D01*
X70007000Y-72015151D01*
X70093000Y-72015151D01*
X70093000Y-72256849D01*
X70140153Y-72493903D01*
X70232647Y-72717202D01*
X70366927Y-72918167D01*
X70537833Y-73089073D01*
X70738798Y-73223353D01*
X70962097Y-73315847D01*
X71199151Y-73363000D01*
X71440849Y-73363000D01*
X71677903Y-73315847D01*
X71901202Y-73223353D01*
X72102167Y-73089073D01*
X72273073Y-72918167D01*
X72407353Y-72717202D01*
X72499847Y-72493903D01*
X72547000Y-72256849D01*
X72547000Y-72015151D01*
X72499847Y-71778097D01*
X72407353Y-71554798D01*
X72273073Y-71353833D01*
X72102167Y-71182927D01*
X71901202Y-71048647D01*
X71677903Y-70956153D01*
X71440849Y-70909000D01*
X71199151Y-70909000D01*
X70962097Y-70956153D01*
X70738798Y-71048647D01*
X70537833Y-71182927D01*
X70366927Y-71353833D01*
X70232647Y-71554798D01*
X70140153Y-71778097D01*
X70093000Y-72015151D01*
X70007000Y-72015151D01*
X69959847Y-71778097D01*
X69867353Y-71554798D01*
X69733073Y-71353833D01*
X69562167Y-71182927D01*
X69361202Y-71048647D01*
X69137903Y-70956153D01*
X68900849Y-70909000D01*
X68659151Y-70909000D01*
X68422097Y-70956153D01*
X68198798Y-71048647D01*
X67997833Y-71182927D01*
X67826927Y-71353833D01*
X67692647Y-71554798D01*
X67643769Y-71672798D01*
X67584157Y-71504748D01*
X67435178Y-71254645D01*
X67240269Y-71038412D01*
X67006920Y-70864359D01*
X66744099Y-70739175D01*
X66710812Y-70729078D01*
X66821202Y-70683353D01*
X67022167Y-70549073D01*
X67193073Y-70378167D01*
X67327353Y-70177202D01*
X67419847Y-69953903D01*
X67467000Y-69716849D01*
X67467000Y-69475151D01*
X67553000Y-69475151D01*
X67553000Y-69716849D01*
X67600153Y-69953903D01*
X67692647Y-70177202D01*
X67826927Y-70378167D01*
X67997833Y-70549073D01*
X68198798Y-70683353D01*
X68422097Y-70775847D01*
X68659151Y-70823000D01*
X68900849Y-70823000D01*
X69137903Y-70775847D01*
X69361202Y-70683353D01*
X69562167Y-70549073D01*
X69733073Y-70378167D01*
X69867353Y-70177202D01*
X69959847Y-69953903D01*
X70007000Y-69716849D01*
X70007000Y-69475151D01*
X70093000Y-69475151D01*
X70093000Y-69716849D01*
X70140153Y-69953903D01*
X70232647Y-70177202D01*
X70366927Y-70378167D01*
X70537833Y-70549073D01*
X70738798Y-70683353D01*
X70962097Y-70775847D01*
X71199151Y-70823000D01*
X71440849Y-70823000D01*
X71677903Y-70775847D01*
X71901202Y-70683353D01*
X72102167Y-70549073D01*
X72273073Y-70378167D01*
X72407353Y-70177202D01*
X72499847Y-69953903D01*
X72547000Y-69716849D01*
X72547000Y-69475151D01*
X72499847Y-69238097D01*
X72407353Y-69014798D01*
X72273073Y-68813833D01*
X72102167Y-68642927D01*
X71901202Y-68508647D01*
X71677903Y-68416153D01*
X71440849Y-68369000D01*
X71199151Y-68369000D01*
X70962097Y-68416153D01*
X70738798Y-68508647D01*
X70537833Y-68642927D01*
X70366927Y-68813833D01*
X70232647Y-69014798D01*
X70140153Y-69238097D01*
X70093000Y-69475151D01*
X70007000Y-69475151D01*
X69959847Y-69238097D01*
X69867353Y-69014798D01*
X69733073Y-68813833D01*
X69562167Y-68642927D01*
X69361202Y-68508647D01*
X69137903Y-68416153D01*
X68900849Y-68369000D01*
X68659151Y-68369000D01*
X68422097Y-68416153D01*
X68198798Y-68508647D01*
X67997833Y-68642927D01*
X67826927Y-68813833D01*
X67692647Y-69014798D01*
X67600153Y-69238097D01*
X67553000Y-69475151D01*
X67467000Y-69475151D01*
X67419847Y-69238097D01*
X67327353Y-69014798D01*
X67193073Y-68813833D01*
X67022167Y-68642927D01*
X66821202Y-68508647D01*
X66597903Y-68416153D01*
X66360849Y-68369000D01*
X66119151Y-68369000D01*
X65882097Y-68416153D01*
X65658798Y-68508647D01*
X65457833Y-68642927D01*
X65286927Y-68813833D01*
X65152647Y-69014798D01*
X65060153Y-69238097D01*
X65013000Y-69475151D01*
X65013000Y-69716849D01*
X65060153Y-69953903D01*
X65152647Y-70177202D01*
X65286927Y-70378167D01*
X65457833Y-70549073D01*
X65658798Y-70683353D01*
X65769188Y-70729078D01*
X65735901Y-70739175D01*
X65473080Y-70864359D01*
X65239731Y-71038412D01*
X65044822Y-71254645D01*
X64895843Y-71504748D01*
X64836231Y-71672798D01*
X64787353Y-71554798D01*
X64653073Y-71353833D01*
X64482167Y-71182927D01*
X64281202Y-71048647D01*
X64057903Y-70956153D01*
X63820849Y-70909000D01*
X63579151Y-70909000D01*
X63342097Y-70956153D01*
X63118798Y-71048647D01*
X62917833Y-71182927D01*
X62746927Y-71353833D01*
X62612647Y-71554798D01*
X62520153Y-71778097D01*
X62473000Y-72015151D01*
X50427000Y-72015151D01*
X50427000Y-65801000D01*
X53037176Y-65801000D01*
X53037176Y-67551000D01*
X53061268Y-67795609D01*
X53132618Y-68030818D01*
X53248483Y-68247587D01*
X53404413Y-68437587D01*
X53594413Y-68593517D01*
X53811182Y-68709382D01*
X54046391Y-68780732D01*
X54291000Y-68804824D01*
X56041000Y-68804824D01*
X56285609Y-68780732D01*
X56400104Y-68746000D01*
X62471176Y-68746000D01*
X62471176Y-70446000D01*
X62478455Y-70519905D01*
X62500012Y-70590970D01*
X62535019Y-70656463D01*
X62582131Y-70713869D01*
X62639537Y-70760981D01*
X62705030Y-70795988D01*
X62776095Y-70817545D01*
X62850000Y-70824824D01*
X64550000Y-70824824D01*
X64623905Y-70817545D01*
X64694970Y-70795988D01*
X64760463Y-70760981D01*
X64817869Y-70713869D01*
X64864981Y-70656463D01*
X64899988Y-70590970D01*
X64921545Y-70519905D01*
X64928824Y-70446000D01*
X64928824Y-68746000D01*
X64921545Y-68672095D01*
X64899988Y-68601030D01*
X64864981Y-68535537D01*
X64817869Y-68478131D01*
X64760463Y-68431019D01*
X64694970Y-68396012D01*
X64623905Y-68374455D01*
X64550000Y-68367176D01*
X62850000Y-68367176D01*
X62776095Y-68374455D01*
X62705030Y-68396012D01*
X62639537Y-68431019D01*
X62582131Y-68478131D01*
X62535019Y-68535537D01*
X62500012Y-68601030D01*
X62478455Y-68672095D01*
X62471176Y-68746000D01*
X56400104Y-68746000D01*
X56520818Y-68709382D01*
X56737587Y-68593517D01*
X56927587Y-68437587D01*
X57083517Y-68247587D01*
X57199382Y-68030818D01*
X57270732Y-67795609D01*
X57294824Y-67551000D01*
X57294824Y-65801000D01*
X57270732Y-65556391D01*
X57199382Y-65321182D01*
X57083517Y-65104413D01*
X56927587Y-64914413D01*
X56737587Y-64758483D01*
X56520818Y-64642618D01*
X56285609Y-64571268D01*
X56041000Y-64547176D01*
X54291000Y-64547176D01*
X54046391Y-64571268D01*
X53811182Y-64642618D01*
X53594413Y-64758483D01*
X53404413Y-64914413D01*
X53248483Y-65104413D01*
X53132618Y-65321182D01*
X53061268Y-65556391D01*
X53037176Y-65801000D01*
X50427000Y-65801000D01*
X50427000Y-64317073D01*
X50541518Y-64351812D01*
X50666000Y-64364072D01*
X51880250Y-64361000D01*
X52039000Y-64202250D01*
X52039000Y-62103000D01*
X52293000Y-62103000D01*
X52293000Y-64202250D01*
X52451750Y-64361000D01*
X53666000Y-64364072D01*
X53790482Y-64351812D01*
X53910180Y-64315502D01*
X54020494Y-64256537D01*
X54117185Y-64177185D01*
X54196537Y-64080494D01*
X54255502Y-63970180D01*
X54291812Y-63850482D01*
X54304072Y-63726000D01*
X54301000Y-62261750D01*
X54142250Y-62103000D01*
X52293000Y-62103000D01*
X52039000Y-62103000D01*
X52019000Y-62103000D01*
X52019000Y-61849000D01*
X52039000Y-61849000D01*
X52039000Y-59749750D01*
X52293000Y-59749750D01*
X52293000Y-61849000D01*
X54142250Y-61849000D01*
X54301000Y-61690250D01*
X54304072Y-60226000D01*
X56037176Y-60226000D01*
X56037176Y-63726000D01*
X56044455Y-63799905D01*
X56066012Y-63870970D01*
X56101019Y-63936463D01*
X56148131Y-63993869D01*
X56205537Y-64040981D01*
X56271030Y-64075988D01*
X56342095Y-64097545D01*
X56416000Y-64104824D01*
X59916000Y-64104824D01*
X59989905Y-64097545D01*
X60060970Y-64075988D01*
X60126463Y-64040981D01*
X60183869Y-63993869D01*
X60230981Y-63936463D01*
X60265988Y-63870970D01*
X60287545Y-63799905D01*
X60294824Y-63726000D01*
X60294824Y-60226000D01*
X60287545Y-60152095D01*
X60265988Y-60081030D01*
X60230981Y-60015537D01*
X60183869Y-59958131D01*
X60126463Y-59911019D01*
X60060970Y-59876012D01*
X59989905Y-59854455D01*
X59916000Y-59847176D01*
X56416000Y-59847176D01*
X56342095Y-59854455D01*
X56271030Y-59876012D01*
X56205537Y-59911019D01*
X56148131Y-59958131D01*
X56101019Y-60015537D01*
X56066012Y-60081030D01*
X56044455Y-60152095D01*
X56037176Y-60226000D01*
X54304072Y-60226000D01*
X54291812Y-60101518D01*
X54255502Y-59981820D01*
X54196537Y-59871506D01*
X54117185Y-59774815D01*
X54020494Y-59695463D01*
X53910180Y-59636498D01*
X53790482Y-59600188D01*
X53666000Y-59587928D01*
X52451750Y-59591000D01*
X52293000Y-59749750D01*
X52039000Y-59749750D01*
X51880250Y-59591000D01*
X50666000Y-59587928D01*
X50541518Y-59600188D01*
X50427000Y-59634927D01*
X50427000Y-54499444D01*
X63745915Y-54499444D01*
X63745915Y-54691896D01*
X63783461Y-54880650D01*
X63857109Y-55058453D01*
X63964030Y-55218471D01*
X64100114Y-55354555D01*
X64260132Y-55461476D01*
X64348309Y-55498000D01*
X64260132Y-55534524D01*
X64100114Y-55641445D01*
X63964030Y-55777529D01*
X63857109Y-55937547D01*
X63783461Y-56115350D01*
X63745915Y-56304104D01*
X63745915Y-56496556D01*
X63783461Y-56685310D01*
X63857109Y-56863113D01*
X63964030Y-57023131D01*
X64100114Y-57159215D01*
X64220915Y-57239932D01*
X64220916Y-61003660D01*
X64218488Y-61028313D01*
X64228180Y-61126722D01*
X64256885Y-61221349D01*
X64303499Y-61308558D01*
X64350516Y-61365848D01*
X64350519Y-61365851D01*
X64366232Y-61384997D01*
X64385378Y-61400710D01*
X68055500Y-65070833D01*
X68055500Y-65104577D01*
X68081516Y-65235372D01*
X68132550Y-65358578D01*
X68206640Y-65469461D01*
X68300937Y-65563758D01*
X68411820Y-65637848D01*
X68535026Y-65688882D01*
X68665821Y-65714898D01*
X68799179Y-65714898D01*
X68929974Y-65688882D01*
X69053180Y-65637848D01*
X69164063Y-65563758D01*
X69258360Y-65469461D01*
X69332450Y-65358578D01*
X69383484Y-65235372D01*
X69409500Y-65104577D01*
X69409500Y-64971219D01*
X69401963Y-64933323D01*
X71723000Y-64933323D01*
X71723000Y-65066681D01*
X71749016Y-65197476D01*
X71800050Y-65320682D01*
X71874140Y-65431565D01*
X71968437Y-65525862D01*
X72079320Y-65599952D01*
X72202526Y-65650986D01*
X72333321Y-65677002D01*
X72437777Y-65677002D01*
X74164679Y-67403905D01*
X74178839Y-67421159D01*
X74247665Y-67477643D01*
X74326188Y-67519614D01*
X74411390Y-67545460D01*
X74499998Y-67554187D01*
X74522203Y-67552000D01*
X74994577Y-67552000D01*
X75068437Y-67625860D01*
X75179320Y-67699950D01*
X75302526Y-67750984D01*
X75433321Y-67777000D01*
X75566679Y-67777000D01*
X75697474Y-67750984D01*
X75820680Y-67699950D01*
X75931563Y-67625860D01*
X76025860Y-67531563D01*
X76099950Y-67420680D01*
X76150984Y-67297474D01*
X76177000Y-67166679D01*
X76177000Y-67033321D01*
X76150984Y-66902526D01*
X76099950Y-66779320D01*
X76025860Y-66668437D01*
X75931563Y-66574140D01*
X75820680Y-66500050D01*
X75697474Y-66449016D01*
X75566679Y-66423000D01*
X75433321Y-66423000D01*
X75302526Y-66449016D01*
X75179320Y-66500050D01*
X75068437Y-66574140D01*
X74994577Y-66648000D01*
X74687222Y-66648000D01*
X73077000Y-65037779D01*
X73077000Y-64933323D01*
X73050984Y-64802528D01*
X72999950Y-64679322D01*
X72925860Y-64568439D01*
X72831563Y-64474142D01*
X72720680Y-64400052D01*
X72597474Y-64349018D01*
X72466679Y-64323002D01*
X72333321Y-64323002D01*
X72202526Y-64349018D01*
X72079320Y-64400052D01*
X71968437Y-64474142D01*
X71874140Y-64568439D01*
X71800050Y-64679322D01*
X71749016Y-64802528D01*
X71723000Y-64933323D01*
X69401963Y-64933323D01*
X69383484Y-64840424D01*
X69332450Y-64717218D01*
X69258360Y-64606335D01*
X69164063Y-64512038D01*
X69053180Y-64437948D01*
X68929974Y-64386914D01*
X68799179Y-64360898D01*
X68765435Y-64360898D01*
X68269658Y-63865121D01*
X74964200Y-63865121D01*
X74964200Y-63998479D01*
X74990216Y-64129274D01*
X75041250Y-64252480D01*
X75115340Y-64363363D01*
X75209637Y-64457660D01*
X75320520Y-64531750D01*
X75443726Y-64582784D01*
X75574521Y-64608800D01*
X75608266Y-64608800D01*
X76488003Y-65488538D01*
X76503716Y-65507684D01*
X76522862Y-65523397D01*
X76522864Y-65523399D01*
X76534116Y-65532633D01*
X76580155Y-65570417D01*
X76667364Y-65617031D01*
X76761991Y-65645736D01*
X76835747Y-65653000D01*
X76835756Y-65653000D01*
X76860399Y-65655427D01*
X76885042Y-65653000D01*
X80418177Y-65653000D01*
X80442037Y-65676860D01*
X80552920Y-65750950D01*
X80676126Y-65801984D01*
X80806921Y-65828000D01*
X80940279Y-65828000D01*
X81071074Y-65801984D01*
X81194280Y-65750950D01*
X81305163Y-65676860D01*
X81399460Y-65582563D01*
X81473550Y-65471680D01*
X81524584Y-65348474D01*
X81550600Y-65217679D01*
X81550600Y-65084321D01*
X81524584Y-64953526D01*
X81473550Y-64830320D01*
X81399460Y-64719437D01*
X81305163Y-64625140D01*
X81194280Y-64551050D01*
X81071074Y-64500016D01*
X80940279Y-64474000D01*
X80806921Y-64474000D01*
X80676126Y-64500016D01*
X80552920Y-64551050D01*
X80442037Y-64625140D01*
X80418177Y-64649000D01*
X77068335Y-64649000D01*
X76318200Y-63898866D01*
X76318200Y-63865121D01*
X76292184Y-63734326D01*
X76241150Y-63611120D01*
X76167060Y-63500237D01*
X76072763Y-63405940D01*
X75961880Y-63331850D01*
X75838674Y-63280816D01*
X75707879Y-63254800D01*
X75574521Y-63254800D01*
X75443726Y-63280816D01*
X75320520Y-63331850D01*
X75209637Y-63405940D01*
X75115340Y-63500237D01*
X75041250Y-63611120D01*
X74990216Y-63734326D01*
X74964200Y-63865121D01*
X68269658Y-63865121D01*
X65224915Y-60820379D01*
X65224915Y-58662011D01*
X65320884Y-58726136D01*
X65498687Y-58799784D01*
X65687441Y-58837330D01*
X65879893Y-58837330D01*
X66068647Y-58799784D01*
X66246450Y-58726136D01*
X66406468Y-58619215D01*
X66523000Y-58502683D01*
X66523000Y-58514226D01*
X66560546Y-58702980D01*
X66634194Y-58880783D01*
X66741115Y-59040801D01*
X66877199Y-59176885D01*
X67037217Y-59283806D01*
X67215020Y-59357454D01*
X67403774Y-59395000D01*
X67596226Y-59395000D01*
X67784980Y-59357454D01*
X67962783Y-59283806D01*
X68122801Y-59176885D01*
X68258885Y-59040801D01*
X68365806Y-58880783D01*
X68439454Y-58702980D01*
X68477000Y-58514226D01*
X68477000Y-58502683D01*
X68593532Y-58619215D01*
X68753550Y-58726136D01*
X68931353Y-58799784D01*
X69120107Y-58837330D01*
X69312559Y-58837330D01*
X69501313Y-58799784D01*
X69679116Y-58726136D01*
X69839134Y-58619215D01*
X69975218Y-58483131D01*
X70082139Y-58323113D01*
X70155787Y-58145310D01*
X70193333Y-57956556D01*
X70193333Y-57764104D01*
X70155787Y-57575350D01*
X70119934Y-57488792D01*
X70150085Y-57469061D01*
X70150085Y-56527330D01*
X70404085Y-56527330D01*
X70404085Y-57469061D01*
X70594694Y-57593792D01*
X70676056Y-57569115D01*
X70896409Y-57468822D01*
X71092961Y-57327467D01*
X71258160Y-57150483D01*
X71385657Y-56944671D01*
X71470552Y-56717940D01*
X71346794Y-56527330D01*
X70404085Y-56527330D01*
X70150085Y-56527330D01*
X70130085Y-56527330D01*
X70130085Y-56273330D01*
X70150085Y-56273330D01*
X70150085Y-54722670D01*
X70404085Y-54722670D01*
X70404085Y-56273330D01*
X71346794Y-56273330D01*
X71470552Y-56082720D01*
X71385657Y-55855989D01*
X71258160Y-55650177D01*
X71116116Y-55498000D01*
X71258160Y-55345823D01*
X71385657Y-55140011D01*
X71470552Y-54913280D01*
X71346794Y-54722670D01*
X70404085Y-54722670D01*
X70150085Y-54722670D01*
X70130085Y-54722670D01*
X70130085Y-54468670D01*
X70150085Y-54468670D01*
X70150085Y-54448670D01*
X70404085Y-54448670D01*
X70404085Y-54468670D01*
X71346794Y-54468670D01*
X71470552Y-54278060D01*
X71385657Y-54051329D01*
X71258160Y-53845517D01*
X71092961Y-53668533D01*
X70896409Y-53527178D01*
X70676056Y-53426885D01*
X70594694Y-53402208D01*
X70404087Y-53526938D01*
X70404087Y-53468538D01*
X70409800Y-53453280D01*
X70404087Y-53444481D01*
X70404087Y-53360670D01*
X70349671Y-53360670D01*
X70286042Y-53262670D01*
X69343333Y-53262670D01*
X69343333Y-53282670D01*
X69089333Y-53282670D01*
X69089333Y-53262670D01*
X69069333Y-53262670D01*
X69069333Y-53008670D01*
X69089333Y-53008670D01*
X69089333Y-52066939D01*
X69343333Y-52066939D01*
X69343333Y-53008670D01*
X70286042Y-53008670D01*
X70409800Y-52818060D01*
X70324905Y-52591329D01*
X70197408Y-52385517D01*
X70032209Y-52208533D01*
X69835657Y-52067178D01*
X69615304Y-51966885D01*
X69533942Y-51942208D01*
X69343333Y-52066939D01*
X69089333Y-52066939D01*
X68898724Y-51942208D01*
X68817362Y-51966885D01*
X68597009Y-52067178D01*
X68457179Y-52167740D01*
X68406997Y-52002309D01*
X68316276Y-51832582D01*
X68194186Y-51683814D01*
X68045418Y-51561724D01*
X67875691Y-51471003D01*
X67691525Y-51415137D01*
X67500000Y-51396273D01*
X67308476Y-51415137D01*
X67124310Y-51471003D01*
X66954583Y-51561724D01*
X66805815Y-51683814D01*
X66683724Y-51832582D01*
X66593003Y-52002309D01*
X66537137Y-52186475D01*
X66523000Y-52330007D01*
X66523000Y-52493317D01*
X66406468Y-52376785D01*
X66246450Y-52269864D01*
X66068647Y-52196216D01*
X65879893Y-52158670D01*
X65687441Y-52158670D01*
X65498687Y-52196216D01*
X65320884Y-52269864D01*
X65160866Y-52376785D01*
X65024782Y-52512869D01*
X64917861Y-52672887D01*
X64844213Y-52850690D01*
X64806667Y-53039444D01*
X64806667Y-53231896D01*
X64844213Y-53420650D01*
X64917861Y-53598453D01*
X64948573Y-53644416D01*
X64819141Y-53618670D01*
X64626689Y-53618670D01*
X64437935Y-53656216D01*
X64260132Y-53729864D01*
X64100114Y-53836785D01*
X63964030Y-53972869D01*
X63857109Y-54132887D01*
X63783461Y-54310690D01*
X63745915Y-54499444D01*
X50427000Y-54499444D01*
X50427000Y-52020883D01*
X50458967Y-51694864D01*
X50547582Y-51401357D01*
X50691520Y-51130650D01*
X50885298Y-50893055D01*
X51121535Y-50697621D01*
X51391230Y-50551798D01*
X51684115Y-50461135D01*
X52008883Y-50427000D01*
X80439117Y-50427000D01*
X80765136Y-50458967D01*
G37*
X80765136Y-50458967D02*
X81058643Y-50547582D01*
X81329350Y-50691520D01*
X81566945Y-50885298D01*
X81762379Y-51121535D01*
X81908202Y-51391230D01*
X81998865Y-51684115D01*
X82033000Y-52008883D01*
X82033001Y-72043107D01*
X82001034Y-72369131D01*
X81912419Y-72662641D01*
X81768479Y-72933353D01*
X81574703Y-73170945D01*
X81338462Y-73366380D01*
X81068770Y-73512202D01*
X80775885Y-73602865D01*
X80451117Y-73637000D01*
X52020883Y-73637000D01*
X51694869Y-73605034D01*
X51401359Y-73516419D01*
X51130647Y-73372479D01*
X50893055Y-73178703D01*
X50697620Y-72942462D01*
X50551798Y-72672770D01*
X50461135Y-72379885D01*
X50427000Y-72055117D01*
X50427000Y-72015151D01*
X62473000Y-72015151D01*
X62473000Y-72256849D01*
X62520153Y-72493903D01*
X62612647Y-72717202D01*
X62746927Y-72918167D01*
X62917833Y-73089073D01*
X63118798Y-73223353D01*
X63342097Y-73315847D01*
X63579151Y-73363000D01*
X63820849Y-73363000D01*
X64057903Y-73315847D01*
X64281202Y-73223353D01*
X64482167Y-73089073D01*
X64653073Y-72918167D01*
X64787353Y-72717202D01*
X64836231Y-72599202D01*
X64895843Y-72767252D01*
X65044822Y-73017355D01*
X65239731Y-73233588D01*
X65473080Y-73407641D01*
X65735901Y-73532825D01*
X65883110Y-73577476D01*
X66113000Y-73456155D01*
X66113000Y-72263000D01*
X66093000Y-72263000D01*
X66093000Y-72009000D01*
X66113000Y-72009000D01*
X66113000Y-71989000D01*
X66367000Y-71989000D01*
X66367000Y-72009000D01*
X66387000Y-72009000D01*
X66387000Y-72263000D01*
X66367000Y-72263000D01*
X66367000Y-73456155D01*
X66596890Y-73577476D01*
X66744099Y-73532825D01*
X67006920Y-73407641D01*
X67240269Y-73233588D01*
X67435178Y-73017355D01*
X67584157Y-72767252D01*
X67643769Y-72599202D01*
X67692647Y-72717202D01*
X67826927Y-72918167D01*
X67997833Y-73089073D01*
X68198798Y-73223353D01*
X68422097Y-73315847D01*
X68659151Y-73363000D01*
X68900849Y-73363000D01*
X69137903Y-73315847D01*
X69361202Y-73223353D01*
X69562167Y-73089073D01*
X69733073Y-72918167D01*
X69867353Y-72717202D01*
X69959847Y-72493903D01*
X70007000Y-72256849D01*
X70007000Y-72015151D01*
X70093000Y-72015151D01*
X70093000Y-72256849D01*
X70140153Y-72493903D01*
X70232647Y-72717202D01*
X70366927Y-72918167D01*
X70537833Y-73089073D01*
X70738798Y-73223353D01*
X70962097Y-73315847D01*
X71199151Y-73363000D01*
X71440849Y-73363000D01*
X71677903Y-73315847D01*
X71901202Y-73223353D01*
X72102167Y-73089073D01*
X72273073Y-72918167D01*
X72407353Y-72717202D01*
X72499847Y-72493903D01*
X72547000Y-72256849D01*
X72547000Y-72015151D01*
X72499847Y-71778097D01*
X72407353Y-71554798D01*
X72273073Y-71353833D01*
X72102167Y-71182927D01*
X71901202Y-71048647D01*
X71677903Y-70956153D01*
X71440849Y-70909000D01*
X71199151Y-70909000D01*
X70962097Y-70956153D01*
X70738798Y-71048647D01*
X70537833Y-71182927D01*
X70366927Y-71353833D01*
X70232647Y-71554798D01*
X70140153Y-71778097D01*
X70093000Y-72015151D01*
X70007000Y-72015151D01*
X69959847Y-71778097D01*
X69867353Y-71554798D01*
X69733073Y-71353833D01*
X69562167Y-71182927D01*
X69361202Y-71048647D01*
X69137903Y-70956153D01*
X68900849Y-70909000D01*
X68659151Y-70909000D01*
X68422097Y-70956153D01*
X68198798Y-71048647D01*
X67997833Y-71182927D01*
X67826927Y-71353833D01*
X67692647Y-71554798D01*
X67643769Y-71672798D01*
X67584157Y-71504748D01*
X67435178Y-71254645D01*
X67240269Y-71038412D01*
X67006920Y-70864359D01*
X66744099Y-70739175D01*
X66710812Y-70729078D01*
X66821202Y-70683353D01*
X67022167Y-70549073D01*
X67193073Y-70378167D01*
X67327353Y-70177202D01*
X67419847Y-69953903D01*
X67467000Y-69716849D01*
X67467000Y-69475151D01*
X67553000Y-69475151D01*
X67553000Y-69716849D01*
X67600153Y-69953903D01*
X67692647Y-70177202D01*
X67826927Y-70378167D01*
X67997833Y-70549073D01*
X68198798Y-70683353D01*
X68422097Y-70775847D01*
X68659151Y-70823000D01*
X68900849Y-70823000D01*
X69137903Y-70775847D01*
X69361202Y-70683353D01*
X69562167Y-70549073D01*
X69733073Y-70378167D01*
X69867353Y-70177202D01*
X69959847Y-69953903D01*
X70007000Y-69716849D01*
X70007000Y-69475151D01*
X70093000Y-69475151D01*
X70093000Y-69716849D01*
X70140153Y-69953903D01*
X70232647Y-70177202D01*
X70366927Y-70378167D01*
X70537833Y-70549073D01*
X70738798Y-70683353D01*
X70962097Y-70775847D01*
X71199151Y-70823000D01*
X71440849Y-70823000D01*
X71677903Y-70775847D01*
X71901202Y-70683353D01*
X72102167Y-70549073D01*
X72273073Y-70378167D01*
X72407353Y-70177202D01*
X72499847Y-69953903D01*
X72547000Y-69716849D01*
X72547000Y-69475151D01*
X72499847Y-69238097D01*
X72407353Y-69014798D01*
X72273073Y-68813833D01*
X72102167Y-68642927D01*
X71901202Y-68508647D01*
X71677903Y-68416153D01*
X71440849Y-68369000D01*
X71199151Y-68369000D01*
X70962097Y-68416153D01*
X70738798Y-68508647D01*
X70537833Y-68642927D01*
X70366927Y-68813833D01*
X70232647Y-69014798D01*
X70140153Y-69238097D01*
X70093000Y-69475151D01*
X70007000Y-69475151D01*
X69959847Y-69238097D01*
X69867353Y-69014798D01*
X69733073Y-68813833D01*
X69562167Y-68642927D01*
X69361202Y-68508647D01*
X69137903Y-68416153D01*
X68900849Y-68369000D01*
X68659151Y-68369000D01*
X68422097Y-68416153D01*
X68198798Y-68508647D01*
X67997833Y-68642927D01*
X67826927Y-68813833D01*
X67692647Y-69014798D01*
X67600153Y-69238097D01*
X67553000Y-69475151D01*
X67467000Y-69475151D01*
X67419847Y-69238097D01*
X67327353Y-69014798D01*
X67193073Y-68813833D01*
X67022167Y-68642927D01*
X66821202Y-68508647D01*
X66597903Y-68416153D01*
X66360849Y-68369000D01*
X66119151Y-68369000D01*
X65882097Y-68416153D01*
X65658798Y-68508647D01*
X65457833Y-68642927D01*
X65286927Y-68813833D01*
X65152647Y-69014798D01*
X65060153Y-69238097D01*
X65013000Y-69475151D01*
X65013000Y-69716849D01*
X65060153Y-69953903D01*
X65152647Y-70177202D01*
X65286927Y-70378167D01*
X65457833Y-70549073D01*
X65658798Y-70683353D01*
X65769188Y-70729078D01*
X65735901Y-70739175D01*
X65473080Y-70864359D01*
X65239731Y-71038412D01*
X65044822Y-71254645D01*
X64895843Y-71504748D01*
X64836231Y-71672798D01*
X64787353Y-71554798D01*
X64653073Y-71353833D01*
X64482167Y-71182927D01*
X64281202Y-71048647D01*
X64057903Y-70956153D01*
X63820849Y-70909000D01*
X63579151Y-70909000D01*
X63342097Y-70956153D01*
X63118798Y-71048647D01*
X62917833Y-71182927D01*
X62746927Y-71353833D01*
X62612647Y-71554798D01*
X62520153Y-71778097D01*
X62473000Y-72015151D01*
X50427000Y-72015151D01*
X50427000Y-65801000D01*
X53037176Y-65801000D01*
X53037176Y-67551000D01*
X53061268Y-67795609D01*
X53132618Y-68030818D01*
X53248483Y-68247587D01*
X53404413Y-68437587D01*
X53594413Y-68593517D01*
X53811182Y-68709382D01*
X54046391Y-68780732D01*
X54291000Y-68804824D01*
X56041000Y-68804824D01*
X56285609Y-68780732D01*
X56400104Y-68746000D01*
X62471176Y-68746000D01*
X62471176Y-70446000D01*
X62478455Y-70519905D01*
X62500012Y-70590970D01*
X62535019Y-70656463D01*
X62582131Y-70713869D01*
X62639537Y-70760981D01*
X62705030Y-70795988D01*
X62776095Y-70817545D01*
X62850000Y-70824824D01*
X64550000Y-70824824D01*
X64623905Y-70817545D01*
X64694970Y-70795988D01*
X64760463Y-70760981D01*
X64817869Y-70713869D01*
X64864981Y-70656463D01*
X64899988Y-70590970D01*
X64921545Y-70519905D01*
X64928824Y-70446000D01*
X64928824Y-68746000D01*
X64921545Y-68672095D01*
X64899988Y-68601030D01*
X64864981Y-68535537D01*
X64817869Y-68478131D01*
X64760463Y-68431019D01*
X64694970Y-68396012D01*
X64623905Y-68374455D01*
X64550000Y-68367176D01*
X62850000Y-68367176D01*
X62776095Y-68374455D01*
X62705030Y-68396012D01*
X62639537Y-68431019D01*
X62582131Y-68478131D01*
X62535019Y-68535537D01*
X62500012Y-68601030D01*
X62478455Y-68672095D01*
X62471176Y-68746000D01*
X56400104Y-68746000D01*
X56520818Y-68709382D01*
X56737587Y-68593517D01*
X56927587Y-68437587D01*
X57083517Y-68247587D01*
X57199382Y-68030818D01*
X57270732Y-67795609D01*
X57294824Y-67551000D01*
X57294824Y-65801000D01*
X57270732Y-65556391D01*
X57199382Y-65321182D01*
X57083517Y-65104413D01*
X56927587Y-64914413D01*
X56737587Y-64758483D01*
X56520818Y-64642618D01*
X56285609Y-64571268D01*
X56041000Y-64547176D01*
X54291000Y-64547176D01*
X54046391Y-64571268D01*
X53811182Y-64642618D01*
X53594413Y-64758483D01*
X53404413Y-64914413D01*
X53248483Y-65104413D01*
X53132618Y-65321182D01*
X53061268Y-65556391D01*
X53037176Y-65801000D01*
X50427000Y-65801000D01*
X50427000Y-64317073D01*
X50541518Y-64351812D01*
X50666000Y-64364072D01*
X51880250Y-64361000D01*
X52039000Y-64202250D01*
X52039000Y-62103000D01*
X52293000Y-62103000D01*
X52293000Y-64202250D01*
X52451750Y-64361000D01*
X53666000Y-64364072D01*
X53790482Y-64351812D01*
X53910180Y-64315502D01*
X54020494Y-64256537D01*
X54117185Y-64177185D01*
X54196537Y-64080494D01*
X54255502Y-63970180D01*
X54291812Y-63850482D01*
X54304072Y-63726000D01*
X54301000Y-62261750D01*
X54142250Y-62103000D01*
X52293000Y-62103000D01*
X52039000Y-62103000D01*
X52019000Y-62103000D01*
X52019000Y-61849000D01*
X52039000Y-61849000D01*
X52039000Y-59749750D01*
X52293000Y-59749750D01*
X52293000Y-61849000D01*
X54142250Y-61849000D01*
X54301000Y-61690250D01*
X54304072Y-60226000D01*
X56037176Y-60226000D01*
X56037176Y-63726000D01*
X56044455Y-63799905D01*
X56066012Y-63870970D01*
X56101019Y-63936463D01*
X56148131Y-63993869D01*
X56205537Y-64040981D01*
X56271030Y-64075988D01*
X56342095Y-64097545D01*
X56416000Y-64104824D01*
X59916000Y-64104824D01*
X59989905Y-64097545D01*
X60060970Y-64075988D01*
X60126463Y-64040981D01*
X60183869Y-63993869D01*
X60230981Y-63936463D01*
X60265988Y-63870970D01*
X60287545Y-63799905D01*
X60294824Y-63726000D01*
X60294824Y-60226000D01*
X60287545Y-60152095D01*
X60265988Y-60081030D01*
X60230981Y-60015537D01*
X60183869Y-59958131D01*
X60126463Y-59911019D01*
X60060970Y-59876012D01*
X59989905Y-59854455D01*
X59916000Y-59847176D01*
X56416000Y-59847176D01*
X56342095Y-59854455D01*
X56271030Y-59876012D01*
X56205537Y-59911019D01*
X56148131Y-59958131D01*
X56101019Y-60015537D01*
X56066012Y-60081030D01*
X56044455Y-60152095D01*
X56037176Y-60226000D01*
X54304072Y-60226000D01*
X54291812Y-60101518D01*
X54255502Y-59981820D01*
X54196537Y-59871506D01*
X54117185Y-59774815D01*
X54020494Y-59695463D01*
X53910180Y-59636498D01*
X53790482Y-59600188D01*
X53666000Y-59587928D01*
X52451750Y-59591000D01*
X52293000Y-59749750D01*
X52039000Y-59749750D01*
X51880250Y-59591000D01*
X50666000Y-59587928D01*
X50541518Y-59600188D01*
X50427000Y-59634927D01*
X50427000Y-54499444D01*
X63745915Y-54499444D01*
X63745915Y-54691896D01*
X63783461Y-54880650D01*
X63857109Y-55058453D01*
X63964030Y-55218471D01*
X64100114Y-55354555D01*
X64260132Y-55461476D01*
X64348309Y-55498000D01*
X64260132Y-55534524D01*
X64100114Y-55641445D01*
X63964030Y-55777529D01*
X63857109Y-55937547D01*
X63783461Y-56115350D01*
X63745915Y-56304104D01*
X63745915Y-56496556D01*
X63783461Y-56685310D01*
X63857109Y-56863113D01*
X63964030Y-57023131D01*
X64100114Y-57159215D01*
X64220915Y-57239932D01*
X64220916Y-61003660D01*
X64218488Y-61028313D01*
X64228180Y-61126722D01*
X64256885Y-61221349D01*
X64303499Y-61308558D01*
X64350516Y-61365848D01*
X64350519Y-61365851D01*
X64366232Y-61384997D01*
X64385378Y-61400710D01*
X68055500Y-65070833D01*
X68055500Y-65104577D01*
X68081516Y-65235372D01*
X68132550Y-65358578D01*
X68206640Y-65469461D01*
X68300937Y-65563758D01*
X68411820Y-65637848D01*
X68535026Y-65688882D01*
X68665821Y-65714898D01*
X68799179Y-65714898D01*
X68929974Y-65688882D01*
X69053180Y-65637848D01*
X69164063Y-65563758D01*
X69258360Y-65469461D01*
X69332450Y-65358578D01*
X69383484Y-65235372D01*
X69409500Y-65104577D01*
X69409500Y-64971219D01*
X69401963Y-64933323D01*
X71723000Y-64933323D01*
X71723000Y-65066681D01*
X71749016Y-65197476D01*
X71800050Y-65320682D01*
X71874140Y-65431565D01*
X71968437Y-65525862D01*
X72079320Y-65599952D01*
X72202526Y-65650986D01*
X72333321Y-65677002D01*
X72437777Y-65677002D01*
X74164679Y-67403905D01*
X74178839Y-67421159D01*
X74247665Y-67477643D01*
X74326188Y-67519614D01*
X74411390Y-67545460D01*
X74499998Y-67554187D01*
X74522203Y-67552000D01*
X74994577Y-67552000D01*
X75068437Y-67625860D01*
X75179320Y-67699950D01*
X75302526Y-67750984D01*
X75433321Y-67777000D01*
X75566679Y-67777000D01*
X75697474Y-67750984D01*
X75820680Y-67699950D01*
X75931563Y-67625860D01*
X76025860Y-67531563D01*
X76099950Y-67420680D01*
X76150984Y-67297474D01*
X76177000Y-67166679D01*
X76177000Y-67033321D01*
X76150984Y-66902526D01*
X76099950Y-66779320D01*
X76025860Y-66668437D01*
X75931563Y-66574140D01*
X75820680Y-66500050D01*
X75697474Y-66449016D01*
X75566679Y-66423000D01*
X75433321Y-66423000D01*
X75302526Y-66449016D01*
X75179320Y-66500050D01*
X75068437Y-66574140D01*
X74994577Y-66648000D01*
X74687222Y-66648000D01*
X73077000Y-65037779D01*
X73077000Y-64933323D01*
X73050984Y-64802528D01*
X72999950Y-64679322D01*
X72925860Y-64568439D01*
X72831563Y-64474142D01*
X72720680Y-64400052D01*
X72597474Y-64349018D01*
X72466679Y-64323002D01*
X72333321Y-64323002D01*
X72202526Y-64349018D01*
X72079320Y-64400052D01*
X71968437Y-64474142D01*
X71874140Y-64568439D01*
X71800050Y-64679322D01*
X71749016Y-64802528D01*
X71723000Y-64933323D01*
X69401963Y-64933323D01*
X69383484Y-64840424D01*
X69332450Y-64717218D01*
X69258360Y-64606335D01*
X69164063Y-64512038D01*
X69053180Y-64437948D01*
X68929974Y-64386914D01*
X68799179Y-64360898D01*
X68765435Y-64360898D01*
X68269658Y-63865121D01*
X74964200Y-63865121D01*
X74964200Y-63998479D01*
X74990216Y-64129274D01*
X75041250Y-64252480D01*
X75115340Y-64363363D01*
X75209637Y-64457660D01*
X75320520Y-64531750D01*
X75443726Y-64582784D01*
X75574521Y-64608800D01*
X75608266Y-64608800D01*
X76488003Y-65488538D01*
X76503716Y-65507684D01*
X76522862Y-65523397D01*
X76522864Y-65523399D01*
X76534116Y-65532633D01*
X76580155Y-65570417D01*
X76667364Y-65617031D01*
X76761991Y-65645736D01*
X76835747Y-65653000D01*
X76835756Y-65653000D01*
X76860399Y-65655427D01*
X76885042Y-65653000D01*
X80418177Y-65653000D01*
X80442037Y-65676860D01*
X80552920Y-65750950D01*
X80676126Y-65801984D01*
X80806921Y-65828000D01*
X80940279Y-65828000D01*
X81071074Y-65801984D01*
X81194280Y-65750950D01*
X81305163Y-65676860D01*
X81399460Y-65582563D01*
X81473550Y-65471680D01*
X81524584Y-65348474D01*
X81550600Y-65217679D01*
X81550600Y-65084321D01*
X81524584Y-64953526D01*
X81473550Y-64830320D01*
X81399460Y-64719437D01*
X81305163Y-64625140D01*
X81194280Y-64551050D01*
X81071074Y-64500016D01*
X80940279Y-64474000D01*
X80806921Y-64474000D01*
X80676126Y-64500016D01*
X80552920Y-64551050D01*
X80442037Y-64625140D01*
X80418177Y-64649000D01*
X77068335Y-64649000D01*
X76318200Y-63898866D01*
X76318200Y-63865121D01*
X76292184Y-63734326D01*
X76241150Y-63611120D01*
X76167060Y-63500237D01*
X76072763Y-63405940D01*
X75961880Y-63331850D01*
X75838674Y-63280816D01*
X75707879Y-63254800D01*
X75574521Y-63254800D01*
X75443726Y-63280816D01*
X75320520Y-63331850D01*
X75209637Y-63405940D01*
X75115340Y-63500237D01*
X75041250Y-63611120D01*
X74990216Y-63734326D01*
X74964200Y-63865121D01*
X68269658Y-63865121D01*
X65224915Y-60820379D01*
X65224915Y-58662011D01*
X65320884Y-58726136D01*
X65498687Y-58799784D01*
X65687441Y-58837330D01*
X65879893Y-58837330D01*
X66068647Y-58799784D01*
X66246450Y-58726136D01*
X66406468Y-58619215D01*
X66523000Y-58502683D01*
X66523000Y-58514226D01*
X66560546Y-58702980D01*
X66634194Y-58880783D01*
X66741115Y-59040801D01*
X66877199Y-59176885D01*
X67037217Y-59283806D01*
X67215020Y-59357454D01*
X67403774Y-59395000D01*
X67596226Y-59395000D01*
X67784980Y-59357454D01*
X67962783Y-59283806D01*
X68122801Y-59176885D01*
X68258885Y-59040801D01*
X68365806Y-58880783D01*
X68439454Y-58702980D01*
X68477000Y-58514226D01*
X68477000Y-58502683D01*
X68593532Y-58619215D01*
X68753550Y-58726136D01*
X68931353Y-58799784D01*
X69120107Y-58837330D01*
X69312559Y-58837330D01*
X69501313Y-58799784D01*
X69679116Y-58726136D01*
X69839134Y-58619215D01*
X69975218Y-58483131D01*
X70082139Y-58323113D01*
X70155787Y-58145310D01*
X70193333Y-57956556D01*
X70193333Y-57764104D01*
X70155787Y-57575350D01*
X70119934Y-57488792D01*
X70150085Y-57469061D01*
X70150085Y-56527330D01*
X70404085Y-56527330D01*
X70404085Y-57469061D01*
X70594694Y-57593792D01*
X70676056Y-57569115D01*
X70896409Y-57468822D01*
X71092961Y-57327467D01*
X71258160Y-57150483D01*
X71385657Y-56944671D01*
X71470552Y-56717940D01*
X71346794Y-56527330D01*
X70404085Y-56527330D01*
X70150085Y-56527330D01*
X70130085Y-56527330D01*
X70130085Y-56273330D01*
X70150085Y-56273330D01*
X70150085Y-54722670D01*
X70404085Y-54722670D01*
X70404085Y-56273330D01*
X71346794Y-56273330D01*
X71470552Y-56082720D01*
X71385657Y-55855989D01*
X71258160Y-55650177D01*
X71116116Y-55498000D01*
X71258160Y-55345823D01*
X71385657Y-55140011D01*
X71470552Y-54913280D01*
X71346794Y-54722670D01*
X70404085Y-54722670D01*
X70150085Y-54722670D01*
X70130085Y-54722670D01*
X70130085Y-54468670D01*
X70150085Y-54468670D01*
X70150085Y-54448670D01*
X70404085Y-54448670D01*
X70404085Y-54468670D01*
X71346794Y-54468670D01*
X71470552Y-54278060D01*
X71385657Y-54051329D01*
X71258160Y-53845517D01*
X71092961Y-53668533D01*
X70896409Y-53527178D01*
X70676056Y-53426885D01*
X70594694Y-53402208D01*
X70404087Y-53526938D01*
X70404087Y-53468538D01*
X70409800Y-53453280D01*
X70404087Y-53444481D01*
X70404087Y-53360670D01*
X70349671Y-53360670D01*
X70286042Y-53262670D01*
X69343333Y-53262670D01*
X69343333Y-53282670D01*
X69089333Y-53282670D01*
X69089333Y-53262670D01*
X69069333Y-53262670D01*
X69069333Y-53008670D01*
X69089333Y-53008670D01*
X69089333Y-52066939D01*
X69343333Y-52066939D01*
X69343333Y-53008670D01*
X70286042Y-53008670D01*
X70409800Y-52818060D01*
X70324905Y-52591329D01*
X70197408Y-52385517D01*
X70032209Y-52208533D01*
X69835657Y-52067178D01*
X69615304Y-51966885D01*
X69533942Y-51942208D01*
X69343333Y-52066939D01*
X69089333Y-52066939D01*
X68898724Y-51942208D01*
X68817362Y-51966885D01*
X68597009Y-52067178D01*
X68457179Y-52167740D01*
X68406997Y-52002309D01*
X68316276Y-51832582D01*
X68194186Y-51683814D01*
X68045418Y-51561724D01*
X67875691Y-51471003D01*
X67691525Y-51415137D01*
X67500000Y-51396273D01*
X67308476Y-51415137D01*
X67124310Y-51471003D01*
X66954583Y-51561724D01*
X66805815Y-51683814D01*
X66683724Y-51832582D01*
X66593003Y-52002309D01*
X66537137Y-52186475D01*
X66523000Y-52330007D01*
X66523000Y-52493317D01*
X66406468Y-52376785D01*
X66246450Y-52269864D01*
X66068647Y-52196216D01*
X65879893Y-52158670D01*
X65687441Y-52158670D01*
X65498687Y-52196216D01*
X65320884Y-52269864D01*
X65160866Y-52376785D01*
X65024782Y-52512869D01*
X64917861Y-52672887D01*
X64844213Y-52850690D01*
X64806667Y-53039444D01*
X64806667Y-53231896D01*
X64844213Y-53420650D01*
X64917861Y-53598453D01*
X64948573Y-53644416D01*
X64819141Y-53618670D01*
X64626689Y-53618670D01*
X64437935Y-53656216D01*
X64260132Y-53729864D01*
X64100114Y-53836785D01*
X63964030Y-53972869D01*
X63857109Y-54132887D01*
X63783461Y-54310690D01*
X63745915Y-54499444D01*
X50427000Y-54499444D01*
X50427000Y-52020883D01*
X50458967Y-51694864D01*
X50547582Y-51401357D01*
X50691520Y-51130650D01*
X50885298Y-50893055D01*
X51121535Y-50697621D01*
X51391230Y-50551798D01*
X51684115Y-50461135D01*
X52008883Y-50427000D01*
X80439117Y-50427000D01*
X80765136Y-50458967D01*
%TD*%
M02*
