%TF.GenerationSoftware,KiCad,Pcbnew,(5.1.6)-1*%
%TF.CreationDate,2021-01-16T21:26:58+01:00*%
%TF.ProjectId,hardware-smart-gaz-detector-extension-board,68617264-7761-4726-952d-736d6172742d,rev?*%
%TF.SameCoordinates,Original*%
%TF.FileFunction,Paste,Top*%
%TF.FilePolarity,Positive*%
%FSLAX46Y46*%
G04 Gerber Fmt 4.6, Leading zero omitted, Abs format (unit mm)*
G04 Created by KiCad (PCBNEW (5.1.6)-1) date 2021-01-16 21:26:58*
%MOMM*%
%LPD*%
G01*
G04 APERTURE LIST*
%ADD10R,1.074609X0.537986*%
%ADD11R,0.549999X1.300000*%
%ADD12R,0.650000X0.400000*%
G04 APERTURE END LIST*
%TO.C,R2*%
G36*
G01*
X63850000Y-66550250D02*
X63850000Y-66037750D01*
G75*
G02*
X64068750Y-65819000I218750J0D01*
G01*
X64506250Y-65819000D01*
G75*
G02*
X64725000Y-66037750I0J-218750D01*
G01*
X64725000Y-66550250D01*
G75*
G02*
X64506250Y-66769000I-218750J0D01*
G01*
X64068750Y-66769000D01*
G75*
G02*
X63850000Y-66550250I0J218750D01*
G01*
G37*
G36*
G01*
X62275000Y-66550250D02*
X62275000Y-66037750D01*
G75*
G02*
X62493750Y-65819000I218750J0D01*
G01*
X62931250Y-65819000D01*
G75*
G02*
X63150000Y-66037750I0J-218750D01*
G01*
X63150000Y-66550250D01*
G75*
G02*
X62931250Y-66769000I-218750J0D01*
G01*
X62493750Y-66769000D01*
G75*
G02*
X62275000Y-66550250I0J218750D01*
G01*
G37*
%TD*%
%TO.C,C2*%
G36*
G01*
X75033850Y-68611100D02*
X74521350Y-68611100D01*
G75*
G02*
X74302600Y-68392350I0J218750D01*
G01*
X74302600Y-67954850D01*
G75*
G02*
X74521350Y-67736100I218750J0D01*
G01*
X75033850Y-67736100D01*
G75*
G02*
X75252600Y-67954850I0J-218750D01*
G01*
X75252600Y-68392350D01*
G75*
G02*
X75033850Y-68611100I-218750J0D01*
G01*
G37*
G36*
G01*
X75033850Y-70186100D02*
X74521350Y-70186100D01*
G75*
G02*
X74302600Y-69967350I0J218750D01*
G01*
X74302600Y-69529850D01*
G75*
G02*
X74521350Y-69311100I218750J0D01*
G01*
X75033850Y-69311100D01*
G75*
G02*
X75252600Y-69529850I0J-218750D01*
G01*
X75252600Y-69967350D01*
G75*
G02*
X75033850Y-70186100I-218750J0D01*
G01*
G37*
%TD*%
%TO.C,C1*%
G36*
G01*
X75189600Y-58620950D02*
X75189600Y-59133450D01*
G75*
G02*
X74970850Y-59352200I-218750J0D01*
G01*
X74533350Y-59352200D01*
G75*
G02*
X74314600Y-59133450I0J218750D01*
G01*
X74314600Y-58620950D01*
G75*
G02*
X74533350Y-58402200I218750J0D01*
G01*
X74970850Y-58402200D01*
G75*
G02*
X75189600Y-58620950I0J-218750D01*
G01*
G37*
G36*
G01*
X76764600Y-58620950D02*
X76764600Y-59133450D01*
G75*
G02*
X76545850Y-59352200I-218750J0D01*
G01*
X76108350Y-59352200D01*
G75*
G02*
X75889600Y-59133450I0J218750D01*
G01*
X75889600Y-58620950D01*
G75*
G02*
X76108350Y-58402200I218750J0D01*
G01*
X76545850Y-58402200D01*
G75*
G02*
X76764600Y-58620950I0J-218750D01*
G01*
G37*
%TD*%
%TO.C,C3*%
G36*
G01*
X51164000Y-54398000D02*
X51164000Y-53298000D01*
G75*
G02*
X51414000Y-53048000I250000J0D01*
G01*
X53914000Y-53048000D01*
G75*
G02*
X54164000Y-53298000I0J-250000D01*
G01*
X54164000Y-54398000D01*
G75*
G02*
X53914000Y-54648000I-250000J0D01*
G01*
X51414000Y-54648000D01*
G75*
G02*
X51164000Y-54398000I0J250000D01*
G01*
G37*
G36*
G01*
X55564000Y-54398000D02*
X55564000Y-53298000D01*
G75*
G02*
X55814000Y-53048000I250000J0D01*
G01*
X58314000Y-53048000D01*
G75*
G02*
X58564000Y-53298000I0J-250000D01*
G01*
X58564000Y-54398000D01*
G75*
G02*
X58314000Y-54648000I-250000J0D01*
G01*
X55814000Y-54648000D01*
G75*
G02*
X55564000Y-54398000I0J250000D01*
G01*
G37*
%TD*%
%TO.C,C4*%
G36*
G01*
X70403000Y-66550250D02*
X70403000Y-66037750D01*
G75*
G02*
X70621750Y-65819000I218750J0D01*
G01*
X71059250Y-65819000D01*
G75*
G02*
X71278000Y-66037750I0J-218750D01*
G01*
X71278000Y-66550250D01*
G75*
G02*
X71059250Y-66769000I-218750J0D01*
G01*
X70621750Y-66769000D01*
G75*
G02*
X70403000Y-66550250I0J218750D01*
G01*
G37*
G36*
G01*
X71978000Y-66550250D02*
X71978000Y-66037750D01*
G75*
G02*
X72196750Y-65819000I218750J0D01*
G01*
X72634250Y-65819000D01*
G75*
G02*
X72853000Y-66037750I0J-218750D01*
G01*
X72853000Y-66550250D01*
G75*
G02*
X72634250Y-66769000I-218750J0D01*
G01*
X72196750Y-66769000D01*
G75*
G02*
X71978000Y-66550250I0J218750D01*
G01*
G37*
%TD*%
%TO.C,C5*%
G36*
G01*
X78001150Y-61894000D02*
X78513650Y-61894000D01*
G75*
G02*
X78732400Y-62112750I0J-218750D01*
G01*
X78732400Y-62550250D01*
G75*
G02*
X78513650Y-62769000I-218750J0D01*
G01*
X78001150Y-62769000D01*
G75*
G02*
X77782400Y-62550250I0J218750D01*
G01*
X77782400Y-62112750D01*
G75*
G02*
X78001150Y-61894000I218750J0D01*
G01*
G37*
G36*
G01*
X78001150Y-63469000D02*
X78513650Y-63469000D01*
G75*
G02*
X78732400Y-63687750I0J-218750D01*
G01*
X78732400Y-64125250D01*
G75*
G02*
X78513650Y-64344000I-218750J0D01*
G01*
X78001150Y-64344000D01*
G75*
G02*
X77782400Y-64125250I0J218750D01*
G01*
X77782400Y-63687750D01*
G75*
G02*
X78001150Y-63469000I218750J0D01*
G01*
G37*
%TD*%
%TO.C,C6*%
G36*
G01*
X81129850Y-64318600D02*
X80617350Y-64318600D01*
G75*
G02*
X80398600Y-64099850I0J218750D01*
G01*
X80398600Y-63662350D01*
G75*
G02*
X80617350Y-63443600I218750J0D01*
G01*
X81129850Y-63443600D01*
G75*
G02*
X81348600Y-63662350I0J-218750D01*
G01*
X81348600Y-64099850D01*
G75*
G02*
X81129850Y-64318600I-218750J0D01*
G01*
G37*
G36*
G01*
X81129850Y-62743600D02*
X80617350Y-62743600D01*
G75*
G02*
X80398600Y-62524850I0J218750D01*
G01*
X80398600Y-62087350D01*
G75*
G02*
X80617350Y-61868600I218750J0D01*
G01*
X81129850Y-61868600D01*
G75*
G02*
X81348600Y-62087350I0J-218750D01*
G01*
X81348600Y-62524850D01*
G75*
G02*
X81129850Y-62743600I-218750J0D01*
G01*
G37*
%TD*%
%TO.C,Q1*%
G36*
G01*
X63102303Y-62992000D02*
X63102303Y-62992000D01*
G75*
G02*
X62833310Y-63260993I-268993J0D01*
G01*
X62296688Y-63260993D01*
G75*
G02*
X62027695Y-62992000I0J268993D01*
G01*
X62027695Y-62992000D01*
G75*
G02*
X62296688Y-62723007I268993J0D01*
G01*
X62833310Y-62723007D01*
G75*
G02*
X63102303Y-62992000I0J-268993D01*
G01*
G37*
G36*
G01*
X64972304Y-62042000D02*
X64972304Y-62042000D01*
G75*
G02*
X64703311Y-62310993I-268993J0D01*
G01*
X64166689Y-62310993D01*
G75*
G02*
X63897696Y-62042000I0J268993D01*
G01*
X63897696Y-62042000D01*
G75*
G02*
X64166689Y-61773007I268993J0D01*
G01*
X64703311Y-61773007D01*
G75*
G02*
X64972304Y-62042000I0J-268993D01*
G01*
G37*
D10*
X64435000Y-63942000D03*
%TD*%
%TO.C,R1*%
G36*
G01*
X66720000Y-66550250D02*
X66720000Y-66037750D01*
G75*
G02*
X66938750Y-65819000I218750J0D01*
G01*
X67376250Y-65819000D01*
G75*
G02*
X67595000Y-66037750I0J-218750D01*
G01*
X67595000Y-66550250D01*
G75*
G02*
X67376250Y-66769000I-218750J0D01*
G01*
X66938750Y-66769000D01*
G75*
G02*
X66720000Y-66550250I0J218750D01*
G01*
G37*
G36*
G01*
X68295000Y-66550250D02*
X68295000Y-66037750D01*
G75*
G02*
X68513750Y-65819000I218750J0D01*
G01*
X68951250Y-65819000D01*
G75*
G02*
X69170000Y-66037750I0J-218750D01*
G01*
X69170000Y-66550250D01*
G75*
G02*
X68951250Y-66769000I-218750J0D01*
G01*
X68513750Y-66769000D01*
G75*
G02*
X68295000Y-66550250I0J218750D01*
G01*
G37*
%TD*%
%TO.C,R3*%
G36*
G01*
X76764600Y-54683950D02*
X76764600Y-55196450D01*
G75*
G02*
X76545850Y-55415200I-218750J0D01*
G01*
X76108350Y-55415200D01*
G75*
G02*
X75889600Y-55196450I0J218750D01*
G01*
X75889600Y-54683950D01*
G75*
G02*
X76108350Y-54465200I218750J0D01*
G01*
X76545850Y-54465200D01*
G75*
G02*
X76764600Y-54683950I0J-218750D01*
G01*
G37*
G36*
G01*
X75189600Y-54683950D02*
X75189600Y-55196450D01*
G75*
G02*
X74970850Y-55415200I-218750J0D01*
G01*
X74533350Y-55415200D01*
G75*
G02*
X74314600Y-55196450I0J218750D01*
G01*
X74314600Y-54683950D01*
G75*
G02*
X74533350Y-54465200I218750J0D01*
G01*
X74970850Y-54465200D01*
G75*
G02*
X75189600Y-54683950I0J-218750D01*
G01*
G37*
%TD*%
%TO.C,R4*%
G36*
G01*
X74314600Y-57101450D02*
X74314600Y-56588950D01*
G75*
G02*
X74533350Y-56370200I218750J0D01*
G01*
X74970850Y-56370200D01*
G75*
G02*
X75189600Y-56588950I0J-218750D01*
G01*
X75189600Y-57101450D01*
G75*
G02*
X74970850Y-57320200I-218750J0D01*
G01*
X74533350Y-57320200D01*
G75*
G02*
X74314600Y-57101450I0J218750D01*
G01*
G37*
G36*
G01*
X75889600Y-57101450D02*
X75889600Y-56588950D01*
G75*
G02*
X76108350Y-56370200I218750J0D01*
G01*
X76545850Y-56370200D01*
G75*
G02*
X76764600Y-56588950I0J-218750D01*
G01*
X76764600Y-57101450D01*
G75*
G02*
X76545850Y-57320200I-218750J0D01*
G01*
X76108350Y-57320200D01*
G75*
G02*
X75889600Y-57101450I0J218750D01*
G01*
G37*
%TD*%
%TO.C,R5*%
G36*
G01*
X75164100Y-66012350D02*
X75164100Y-66524850D01*
G75*
G02*
X74945350Y-66743600I-218750J0D01*
G01*
X74507850Y-66743600D01*
G75*
G02*
X74289100Y-66524850I0J218750D01*
G01*
X74289100Y-66012350D01*
G75*
G02*
X74507850Y-65793600I218750J0D01*
G01*
X74945350Y-65793600D01*
G75*
G02*
X75164100Y-66012350I0J-218750D01*
G01*
G37*
G36*
G01*
X76739100Y-66012350D02*
X76739100Y-66524850D01*
G75*
G02*
X76520350Y-66743600I-218750J0D01*
G01*
X76082850Y-66743600D01*
G75*
G02*
X75864100Y-66524850I0J218750D01*
G01*
X75864100Y-66012350D01*
G75*
G02*
X76082850Y-65793600I218750J0D01*
G01*
X76520350Y-65793600D01*
G75*
G02*
X76739100Y-66012350I0J-218750D01*
G01*
G37*
%TD*%
%TO.C,R6*%
G36*
G01*
X79445600Y-66524850D02*
X79445600Y-66012350D01*
G75*
G02*
X79664350Y-65793600I218750J0D01*
G01*
X80101850Y-65793600D01*
G75*
G02*
X80320600Y-66012350I0J-218750D01*
G01*
X80320600Y-66524850D01*
G75*
G02*
X80101850Y-66743600I-218750J0D01*
G01*
X79664350Y-66743600D01*
G75*
G02*
X79445600Y-66524850I0J218750D01*
G01*
G37*
G36*
G01*
X77870600Y-66524850D02*
X77870600Y-66012350D01*
G75*
G02*
X78089350Y-65793600I218750J0D01*
G01*
X78526850Y-65793600D01*
G75*
G02*
X78745600Y-66012350I0J-218750D01*
G01*
X78745600Y-66524850D01*
G75*
G02*
X78526850Y-66743600I-218750J0D01*
G01*
X78089350Y-66743600D01*
G75*
G02*
X77870600Y-66524850I0J218750D01*
G01*
G37*
%TD*%
%TO.C,R7*%
G36*
G01*
X81129850Y-70186100D02*
X80617350Y-70186100D01*
G75*
G02*
X80398600Y-69967350I0J218750D01*
G01*
X80398600Y-69529850D01*
G75*
G02*
X80617350Y-69311100I218750J0D01*
G01*
X81129850Y-69311100D01*
G75*
G02*
X81348600Y-69529850I0J-218750D01*
G01*
X81348600Y-69967350D01*
G75*
G02*
X81129850Y-70186100I-218750J0D01*
G01*
G37*
G36*
G01*
X81129850Y-68611100D02*
X80617350Y-68611100D01*
G75*
G02*
X80398600Y-68392350I0J218750D01*
G01*
X80398600Y-67954850D01*
G75*
G02*
X80617350Y-67736100I218750J0D01*
G01*
X81129850Y-67736100D01*
G75*
G02*
X81348600Y-67954850I0J-218750D01*
G01*
X81348600Y-68392350D01*
G75*
G02*
X81129850Y-68611100I-218750J0D01*
G01*
G37*
%TD*%
D11*
%TO.C,U2*%
X76616601Y-63912600D03*
X74716602Y-63912600D03*
X74716602Y-61512600D03*
X75666601Y-61512600D03*
X76616601Y-61512600D03*
%TD*%
D12*
%TO.C,U3*%
X76748600Y-68285600D03*
X76748600Y-69585600D03*
X78648600Y-68935600D03*
X76748600Y-68935600D03*
X78648600Y-69585600D03*
X78648600Y-68285600D03*
%TD*%
M02*
