%TF.GenerationSoftware,KiCad,Pcbnew,(5.1.6)-1*%
%TF.CreationDate,2021-01-16T21:26:58+01:00*%
%TF.ProjectId,hardware-smart-gaz-detector-extension-board,68617264-7761-4726-952d-736d6172742d,rev?*%
%TF.SameCoordinates,Original*%
%TF.FileFunction,Soldermask,Top*%
%TF.FilePolarity,Negative*%
%FSLAX46Y46*%
G04 Gerber Fmt 4.6, Leading zero omitted, Abs format (unit mm)*
G04 Created by KiCad (PCBNEW (5.1.6)-1) date 2021-01-16 21:26:58*
%MOMM*%
%LPD*%
G01*
G04 APERTURE LIST*
%ADD10C,0.100000*%
G04 APERTURE END LIST*
D10*
G36*
X66487936Y-71318665D02*
G01*
X66642626Y-71382739D01*
X66712076Y-71429145D01*
X66781844Y-71475762D01*
X66900238Y-71594156D01*
X66946855Y-71663924D01*
X66993261Y-71733374D01*
X67057335Y-71888064D01*
X67090000Y-72052282D01*
X67090000Y-72219718D01*
X67057335Y-72383936D01*
X66993261Y-72538626D01*
X66946855Y-72608076D01*
X66900238Y-72677844D01*
X66781844Y-72796238D01*
X66712076Y-72842855D01*
X66642626Y-72889261D01*
X66487936Y-72953335D01*
X66323718Y-72986000D01*
X66156282Y-72986000D01*
X65992064Y-72953335D01*
X65837374Y-72889261D01*
X65767924Y-72842855D01*
X65698156Y-72796238D01*
X65579762Y-72677844D01*
X65533145Y-72608076D01*
X65486739Y-72538626D01*
X65422665Y-72383936D01*
X65390000Y-72219718D01*
X65390000Y-72052282D01*
X65422665Y-71888064D01*
X65486739Y-71733374D01*
X65533145Y-71663924D01*
X65579762Y-71594156D01*
X65698156Y-71475762D01*
X65767924Y-71429145D01*
X65837374Y-71382739D01*
X65992064Y-71318665D01*
X66156282Y-71286000D01*
X66323718Y-71286000D01*
X66487936Y-71318665D01*
G37*
G36*
X71567936Y-71318665D02*
G01*
X71722626Y-71382739D01*
X71792076Y-71429145D01*
X71861844Y-71475762D01*
X71980238Y-71594156D01*
X72026855Y-71663924D01*
X72073261Y-71733374D01*
X72137335Y-71888064D01*
X72170000Y-72052282D01*
X72170000Y-72219718D01*
X72137335Y-72383936D01*
X72073261Y-72538626D01*
X72026855Y-72608076D01*
X71980238Y-72677844D01*
X71861844Y-72796238D01*
X71792076Y-72842855D01*
X71722626Y-72889261D01*
X71567936Y-72953335D01*
X71403718Y-72986000D01*
X71236282Y-72986000D01*
X71072064Y-72953335D01*
X70917374Y-72889261D01*
X70847924Y-72842855D01*
X70778156Y-72796238D01*
X70659762Y-72677844D01*
X70613145Y-72608076D01*
X70566739Y-72538626D01*
X70502665Y-72383936D01*
X70470000Y-72219718D01*
X70470000Y-72052282D01*
X70502665Y-71888064D01*
X70566739Y-71733374D01*
X70613145Y-71663924D01*
X70659762Y-71594156D01*
X70778156Y-71475762D01*
X70847924Y-71429145D01*
X70917374Y-71382739D01*
X71072064Y-71318665D01*
X71236282Y-71286000D01*
X71403718Y-71286000D01*
X71567936Y-71318665D01*
G37*
G36*
X69027936Y-71318665D02*
G01*
X69182626Y-71382739D01*
X69252076Y-71429145D01*
X69321844Y-71475762D01*
X69440238Y-71594156D01*
X69486855Y-71663924D01*
X69533261Y-71733374D01*
X69597335Y-71888064D01*
X69630000Y-72052282D01*
X69630000Y-72219718D01*
X69597335Y-72383936D01*
X69533261Y-72538626D01*
X69486855Y-72608076D01*
X69440238Y-72677844D01*
X69321844Y-72796238D01*
X69252076Y-72842855D01*
X69182626Y-72889261D01*
X69027936Y-72953335D01*
X68863718Y-72986000D01*
X68696282Y-72986000D01*
X68532064Y-72953335D01*
X68377374Y-72889261D01*
X68307924Y-72842855D01*
X68238156Y-72796238D01*
X68119762Y-72677844D01*
X68073145Y-72608076D01*
X68026739Y-72538626D01*
X67962665Y-72383936D01*
X67930000Y-72219718D01*
X67930000Y-72052282D01*
X67962665Y-71888064D01*
X68026739Y-71733374D01*
X68073145Y-71663924D01*
X68119762Y-71594156D01*
X68238156Y-71475762D01*
X68307924Y-71429145D01*
X68377374Y-71382739D01*
X68532064Y-71318665D01*
X68696282Y-71286000D01*
X68863718Y-71286000D01*
X69027936Y-71318665D01*
G37*
G36*
X63947936Y-71318665D02*
G01*
X64102626Y-71382739D01*
X64172076Y-71429145D01*
X64241844Y-71475762D01*
X64360238Y-71594156D01*
X64406855Y-71663924D01*
X64453261Y-71733374D01*
X64517335Y-71888064D01*
X64550000Y-72052282D01*
X64550000Y-72219718D01*
X64517335Y-72383936D01*
X64453261Y-72538626D01*
X64406855Y-72608076D01*
X64360238Y-72677844D01*
X64241844Y-72796238D01*
X64172076Y-72842855D01*
X64102626Y-72889261D01*
X63947936Y-72953335D01*
X63783718Y-72986000D01*
X63616282Y-72986000D01*
X63452064Y-72953335D01*
X63297374Y-72889261D01*
X63227924Y-72842855D01*
X63158156Y-72796238D01*
X63039762Y-72677844D01*
X62993145Y-72608076D01*
X62946739Y-72538626D01*
X62882665Y-72383936D01*
X62850000Y-72219718D01*
X62850000Y-72052282D01*
X62882665Y-71888064D01*
X62946739Y-71733374D01*
X62993145Y-71663924D01*
X63039762Y-71594156D01*
X63158156Y-71475762D01*
X63227924Y-71429145D01*
X63297374Y-71382739D01*
X63452064Y-71318665D01*
X63616282Y-71286000D01*
X63783718Y-71286000D01*
X63947936Y-71318665D01*
G37*
G36*
X69027936Y-68778665D02*
G01*
X69182626Y-68842739D01*
X69252076Y-68889145D01*
X69321844Y-68935762D01*
X69440238Y-69054156D01*
X69486855Y-69123924D01*
X69533261Y-69193374D01*
X69597335Y-69348064D01*
X69630000Y-69512282D01*
X69630000Y-69679718D01*
X69597335Y-69843936D01*
X69533261Y-69998626D01*
X69498224Y-70051062D01*
X69440238Y-70137844D01*
X69321844Y-70256238D01*
X69252076Y-70302855D01*
X69182626Y-70349261D01*
X69027936Y-70413335D01*
X68863718Y-70446000D01*
X68696282Y-70446000D01*
X68532064Y-70413335D01*
X68377374Y-70349261D01*
X68307924Y-70302855D01*
X68238156Y-70256238D01*
X68119762Y-70137844D01*
X68061776Y-70051062D01*
X68026739Y-69998626D01*
X67962665Y-69843936D01*
X67930000Y-69679718D01*
X67930000Y-69512282D01*
X67962665Y-69348064D01*
X68026739Y-69193374D01*
X68073145Y-69123924D01*
X68119762Y-69054156D01*
X68238156Y-68935762D01*
X68307924Y-68889145D01*
X68377374Y-68842739D01*
X68532064Y-68778665D01*
X68696282Y-68746000D01*
X68863718Y-68746000D01*
X69027936Y-68778665D01*
G37*
G36*
X66487936Y-68778665D02*
G01*
X66642626Y-68842739D01*
X66712076Y-68889145D01*
X66781844Y-68935762D01*
X66900238Y-69054156D01*
X66946855Y-69123924D01*
X66993261Y-69193374D01*
X67057335Y-69348064D01*
X67090000Y-69512282D01*
X67090000Y-69679718D01*
X67057335Y-69843936D01*
X66993261Y-69998626D01*
X66958224Y-70051062D01*
X66900238Y-70137844D01*
X66781844Y-70256238D01*
X66712076Y-70302855D01*
X66642626Y-70349261D01*
X66487936Y-70413335D01*
X66323718Y-70446000D01*
X66156282Y-70446000D01*
X65992064Y-70413335D01*
X65837374Y-70349261D01*
X65767924Y-70302855D01*
X65698156Y-70256238D01*
X65579762Y-70137844D01*
X65521776Y-70051062D01*
X65486739Y-69998626D01*
X65422665Y-69843936D01*
X65390000Y-69679718D01*
X65390000Y-69512282D01*
X65422665Y-69348064D01*
X65486739Y-69193374D01*
X65533145Y-69123924D01*
X65579762Y-69054156D01*
X65698156Y-68935762D01*
X65767924Y-68889145D01*
X65837374Y-68842739D01*
X65992064Y-68778665D01*
X66156282Y-68746000D01*
X66323718Y-68746000D01*
X66487936Y-68778665D01*
G37*
G36*
X64550000Y-70446000D02*
G01*
X62850000Y-70446000D01*
X62850000Y-68746000D01*
X64550000Y-68746000D01*
X64550000Y-70446000D01*
G37*
G36*
X71567936Y-68778665D02*
G01*
X71722626Y-68842739D01*
X71792076Y-68889145D01*
X71861844Y-68935762D01*
X71980238Y-69054156D01*
X72026855Y-69123924D01*
X72073261Y-69193374D01*
X72137335Y-69348064D01*
X72170000Y-69512282D01*
X72170000Y-69679718D01*
X72137335Y-69843936D01*
X72073261Y-69998626D01*
X72038224Y-70051062D01*
X71980238Y-70137844D01*
X71861844Y-70256238D01*
X71792076Y-70302855D01*
X71722626Y-70349261D01*
X71567936Y-70413335D01*
X71403718Y-70446000D01*
X71236282Y-70446000D01*
X71072064Y-70413335D01*
X70917374Y-70349261D01*
X70847924Y-70302855D01*
X70778156Y-70256238D01*
X70659762Y-70137844D01*
X70601776Y-70051062D01*
X70566739Y-69998626D01*
X70502665Y-69843936D01*
X70470000Y-69679718D01*
X70470000Y-69512282D01*
X70502665Y-69348064D01*
X70566739Y-69193374D01*
X70613145Y-69123924D01*
X70659762Y-69054156D01*
X70778156Y-68935762D01*
X70847924Y-68889145D01*
X70917374Y-68842739D01*
X71072064Y-68778665D01*
X71236282Y-68746000D01*
X71403718Y-68746000D01*
X71567936Y-68778665D01*
G37*
G36*
X81196619Y-69315012D02*
G01*
X81231971Y-69325736D01*
X81264550Y-69343150D01*
X81293111Y-69366589D01*
X81316550Y-69395150D01*
X81333964Y-69427729D01*
X81344688Y-69463081D01*
X81348600Y-69502797D01*
X81348600Y-69994403D01*
X81344688Y-70034119D01*
X81333964Y-70069471D01*
X81316550Y-70102050D01*
X81293111Y-70130611D01*
X81264550Y-70154050D01*
X81231971Y-70171464D01*
X81196619Y-70182188D01*
X81156903Y-70186100D01*
X80590297Y-70186100D01*
X80550581Y-70182188D01*
X80515229Y-70171464D01*
X80482650Y-70154050D01*
X80454089Y-70130611D01*
X80430650Y-70102050D01*
X80413236Y-70069471D01*
X80402512Y-70034119D01*
X80398600Y-69994403D01*
X80398600Y-69502797D01*
X80402512Y-69463081D01*
X80413236Y-69427729D01*
X80430650Y-69395150D01*
X80454089Y-69366589D01*
X80482650Y-69343150D01*
X80515229Y-69325736D01*
X80550581Y-69315012D01*
X80590297Y-69311100D01*
X81156903Y-69311100D01*
X81196619Y-69315012D01*
G37*
G36*
X75100619Y-69315012D02*
G01*
X75135971Y-69325736D01*
X75168550Y-69343150D01*
X75197111Y-69366589D01*
X75220550Y-69395150D01*
X75237964Y-69427729D01*
X75248688Y-69463081D01*
X75252600Y-69502797D01*
X75252600Y-69994403D01*
X75248688Y-70034119D01*
X75237964Y-70069471D01*
X75220550Y-70102050D01*
X75197111Y-70130611D01*
X75168550Y-70154050D01*
X75135971Y-70171464D01*
X75100619Y-70182188D01*
X75060903Y-70186100D01*
X74494297Y-70186100D01*
X74454581Y-70182188D01*
X74419229Y-70171464D01*
X74386650Y-70154050D01*
X74358089Y-70130611D01*
X74334650Y-70102050D01*
X74317236Y-70069471D01*
X74306512Y-70034119D01*
X74302600Y-69994403D01*
X74302600Y-69502797D01*
X74306512Y-69463081D01*
X74317236Y-69427729D01*
X74334650Y-69395150D01*
X74358089Y-69366589D01*
X74386650Y-69343150D01*
X74419229Y-69325736D01*
X74454581Y-69315012D01*
X74494297Y-69311100D01*
X75060903Y-69311100D01*
X75100619Y-69315012D01*
G37*
G36*
X78973600Y-69785600D02*
G01*
X78323600Y-69785600D01*
X78323600Y-69385600D01*
X78973600Y-69385600D01*
X78973600Y-69785600D01*
G37*
G36*
X77073600Y-69785600D02*
G01*
X76423600Y-69785600D01*
X76423600Y-69385600D01*
X77073600Y-69385600D01*
X77073600Y-69785600D01*
G37*
G36*
X78973600Y-69135600D02*
G01*
X78323600Y-69135600D01*
X78323600Y-68735600D01*
X78973600Y-68735600D01*
X78973600Y-69135600D01*
G37*
G36*
X77073600Y-69135600D02*
G01*
X76423600Y-69135600D01*
X76423600Y-68735600D01*
X77073600Y-68735600D01*
X77073600Y-69135600D01*
G37*
G36*
X81196619Y-67740012D02*
G01*
X81231971Y-67750736D01*
X81264550Y-67768150D01*
X81293111Y-67791589D01*
X81316550Y-67820150D01*
X81333964Y-67852729D01*
X81344688Y-67888081D01*
X81348600Y-67927797D01*
X81348600Y-68419403D01*
X81344688Y-68459119D01*
X81333964Y-68494471D01*
X81316550Y-68527050D01*
X81293111Y-68555611D01*
X81264550Y-68579050D01*
X81231971Y-68596464D01*
X81196619Y-68607188D01*
X81156903Y-68611100D01*
X80590297Y-68611100D01*
X80550581Y-68607188D01*
X80515229Y-68596464D01*
X80482650Y-68579050D01*
X80454089Y-68555611D01*
X80430650Y-68527050D01*
X80413236Y-68494471D01*
X80402512Y-68459119D01*
X80398600Y-68419403D01*
X80398600Y-67927797D01*
X80402512Y-67888081D01*
X80413236Y-67852729D01*
X80430650Y-67820150D01*
X80454089Y-67791589D01*
X80482650Y-67768150D01*
X80515229Y-67750736D01*
X80550581Y-67740012D01*
X80590297Y-67736100D01*
X81156903Y-67736100D01*
X81196619Y-67740012D01*
G37*
G36*
X75100619Y-67740012D02*
G01*
X75135971Y-67750736D01*
X75168550Y-67768150D01*
X75197111Y-67791589D01*
X75220550Y-67820150D01*
X75237964Y-67852729D01*
X75248688Y-67888081D01*
X75252600Y-67927797D01*
X75252600Y-68419403D01*
X75248688Y-68459119D01*
X75237964Y-68494471D01*
X75220550Y-68527050D01*
X75197111Y-68555611D01*
X75168550Y-68579050D01*
X75135971Y-68596464D01*
X75100619Y-68607188D01*
X75060903Y-68611100D01*
X74494297Y-68611100D01*
X74454581Y-68607188D01*
X74419229Y-68596464D01*
X74386650Y-68579050D01*
X74358089Y-68555611D01*
X74334650Y-68527050D01*
X74317236Y-68494471D01*
X74306512Y-68459119D01*
X74302600Y-68419403D01*
X74302600Y-67927797D01*
X74306512Y-67888081D01*
X74317236Y-67852729D01*
X74334650Y-67820150D01*
X74358089Y-67791589D01*
X74386650Y-67768150D01*
X74419229Y-67750736D01*
X74454581Y-67740012D01*
X74494297Y-67736100D01*
X75060903Y-67736100D01*
X75100619Y-67740012D01*
G37*
G36*
X77073600Y-68485600D02*
G01*
X76423600Y-68485600D01*
X76423600Y-68085600D01*
X77073600Y-68085600D01*
X77073600Y-68485600D01*
G37*
G36*
X78973600Y-68485600D02*
G01*
X78323600Y-68485600D01*
X78323600Y-68085600D01*
X78973600Y-68085600D01*
X78973600Y-68485600D01*
G37*
G36*
X56235797Y-64942521D02*
G01*
X56394257Y-64990590D01*
X56540293Y-65068648D01*
X56668300Y-65173700D01*
X56773352Y-65301707D01*
X56851410Y-65447743D01*
X56899479Y-65606203D01*
X56916000Y-65773947D01*
X56916000Y-67578053D01*
X56899479Y-67745797D01*
X56851410Y-67904257D01*
X56773352Y-68050293D01*
X56668300Y-68178300D01*
X56540293Y-68283352D01*
X56394257Y-68361410D01*
X56235797Y-68409479D01*
X56068053Y-68426000D01*
X54263947Y-68426000D01*
X54096203Y-68409479D01*
X53937743Y-68361410D01*
X53791707Y-68283352D01*
X53663700Y-68178300D01*
X53558648Y-68050293D01*
X53480590Y-67904257D01*
X53432521Y-67745797D01*
X53416000Y-67578053D01*
X53416000Y-65773947D01*
X53432521Y-65606203D01*
X53480590Y-65447743D01*
X53558648Y-65301707D01*
X53663700Y-65173700D01*
X53791707Y-65068648D01*
X53937743Y-64990590D01*
X54096203Y-64942521D01*
X54263947Y-64926000D01*
X56068053Y-64926000D01*
X56235797Y-64942521D01*
G37*
G36*
X64573019Y-65822912D02*
G01*
X64608371Y-65833636D01*
X64640950Y-65851050D01*
X64669511Y-65874489D01*
X64692950Y-65903050D01*
X64710364Y-65935629D01*
X64721088Y-65970981D01*
X64725000Y-66010697D01*
X64725000Y-66577303D01*
X64721088Y-66617019D01*
X64710364Y-66652371D01*
X64692950Y-66684950D01*
X64669511Y-66713511D01*
X64640950Y-66736950D01*
X64608371Y-66754364D01*
X64573019Y-66765088D01*
X64533303Y-66769000D01*
X64041697Y-66769000D01*
X64001981Y-66765088D01*
X63966629Y-66754364D01*
X63934050Y-66736950D01*
X63905489Y-66713511D01*
X63882050Y-66684950D01*
X63864636Y-66652371D01*
X63853912Y-66617019D01*
X63850000Y-66577303D01*
X63850000Y-66010697D01*
X63853912Y-65970981D01*
X63864636Y-65935629D01*
X63882050Y-65903050D01*
X63905489Y-65874489D01*
X63934050Y-65851050D01*
X63966629Y-65833636D01*
X64001981Y-65822912D01*
X64041697Y-65819000D01*
X64533303Y-65819000D01*
X64573019Y-65822912D01*
G37*
G36*
X62998019Y-65822912D02*
G01*
X63033371Y-65833636D01*
X63065950Y-65851050D01*
X63094511Y-65874489D01*
X63117950Y-65903050D01*
X63135364Y-65935629D01*
X63146088Y-65970981D01*
X63150000Y-66010697D01*
X63150000Y-66577303D01*
X63146088Y-66617019D01*
X63135364Y-66652371D01*
X63117950Y-66684950D01*
X63094511Y-66713511D01*
X63065950Y-66736950D01*
X63033371Y-66754364D01*
X62998019Y-66765088D01*
X62958303Y-66769000D01*
X62466697Y-66769000D01*
X62426981Y-66765088D01*
X62391629Y-66754364D01*
X62359050Y-66736950D01*
X62330489Y-66713511D01*
X62307050Y-66684950D01*
X62289636Y-66652371D01*
X62278912Y-66617019D01*
X62275000Y-66577303D01*
X62275000Y-66010697D01*
X62278912Y-65970981D01*
X62289636Y-65935629D01*
X62307050Y-65903050D01*
X62330489Y-65874489D01*
X62359050Y-65851050D01*
X62391629Y-65833636D01*
X62426981Y-65822912D01*
X62466697Y-65819000D01*
X62958303Y-65819000D01*
X62998019Y-65822912D01*
G37*
G36*
X71126019Y-65822912D02*
G01*
X71161371Y-65833636D01*
X71193950Y-65851050D01*
X71222511Y-65874489D01*
X71245950Y-65903050D01*
X71263364Y-65935629D01*
X71274088Y-65970981D01*
X71278000Y-66010697D01*
X71278000Y-66577303D01*
X71274088Y-66617019D01*
X71263364Y-66652371D01*
X71245950Y-66684950D01*
X71222511Y-66713511D01*
X71193950Y-66736950D01*
X71161371Y-66754364D01*
X71126019Y-66765088D01*
X71086303Y-66769000D01*
X70594697Y-66769000D01*
X70554981Y-66765088D01*
X70519629Y-66754364D01*
X70487050Y-66736950D01*
X70458489Y-66713511D01*
X70435050Y-66684950D01*
X70417636Y-66652371D01*
X70406912Y-66617019D01*
X70403000Y-66577303D01*
X70403000Y-66010697D01*
X70406912Y-65970981D01*
X70417636Y-65935629D01*
X70435050Y-65903050D01*
X70458489Y-65874489D01*
X70487050Y-65851050D01*
X70519629Y-65833636D01*
X70554981Y-65822912D01*
X70594697Y-65819000D01*
X71086303Y-65819000D01*
X71126019Y-65822912D01*
G37*
G36*
X72701019Y-65822912D02*
G01*
X72736371Y-65833636D01*
X72768950Y-65851050D01*
X72797511Y-65874489D01*
X72820950Y-65903050D01*
X72838364Y-65935629D01*
X72849088Y-65970981D01*
X72853000Y-66010697D01*
X72853000Y-66577303D01*
X72849088Y-66617019D01*
X72838364Y-66652371D01*
X72820950Y-66684950D01*
X72797511Y-66713511D01*
X72768950Y-66736950D01*
X72736371Y-66754364D01*
X72701019Y-66765088D01*
X72661303Y-66769000D01*
X72169697Y-66769000D01*
X72129981Y-66765088D01*
X72094629Y-66754364D01*
X72062050Y-66736950D01*
X72033489Y-66713511D01*
X72010050Y-66684950D01*
X71992636Y-66652371D01*
X71981912Y-66617019D01*
X71978000Y-66577303D01*
X71978000Y-66010697D01*
X71981912Y-65970981D01*
X71992636Y-65935629D01*
X72010050Y-65903050D01*
X72033489Y-65874489D01*
X72062050Y-65851050D01*
X72094629Y-65833636D01*
X72129981Y-65822912D01*
X72169697Y-65819000D01*
X72661303Y-65819000D01*
X72701019Y-65822912D01*
G37*
G36*
X67443019Y-65822912D02*
G01*
X67478371Y-65833636D01*
X67510950Y-65851050D01*
X67539511Y-65874489D01*
X67562950Y-65903050D01*
X67580364Y-65935629D01*
X67591088Y-65970981D01*
X67595000Y-66010697D01*
X67595000Y-66577303D01*
X67591088Y-66617019D01*
X67580364Y-66652371D01*
X67562950Y-66684950D01*
X67539511Y-66713511D01*
X67510950Y-66736950D01*
X67478371Y-66754364D01*
X67443019Y-66765088D01*
X67403303Y-66769000D01*
X66911697Y-66769000D01*
X66871981Y-66765088D01*
X66836629Y-66754364D01*
X66804050Y-66736950D01*
X66775489Y-66713511D01*
X66752050Y-66684950D01*
X66734636Y-66652371D01*
X66723912Y-66617019D01*
X66720000Y-66577303D01*
X66720000Y-66010697D01*
X66723912Y-65970981D01*
X66734636Y-65935629D01*
X66752050Y-65903050D01*
X66775489Y-65874489D01*
X66804050Y-65851050D01*
X66836629Y-65833636D01*
X66871981Y-65822912D01*
X66911697Y-65819000D01*
X67403303Y-65819000D01*
X67443019Y-65822912D01*
G37*
G36*
X69018019Y-65822912D02*
G01*
X69053371Y-65833636D01*
X69085950Y-65851050D01*
X69114511Y-65874489D01*
X69137950Y-65903050D01*
X69155364Y-65935629D01*
X69166088Y-65970981D01*
X69170000Y-66010697D01*
X69170000Y-66577303D01*
X69166088Y-66617019D01*
X69155364Y-66652371D01*
X69137950Y-66684950D01*
X69114511Y-66713511D01*
X69085950Y-66736950D01*
X69053371Y-66754364D01*
X69018019Y-66765088D01*
X68978303Y-66769000D01*
X68486697Y-66769000D01*
X68446981Y-66765088D01*
X68411629Y-66754364D01*
X68379050Y-66736950D01*
X68350489Y-66713511D01*
X68327050Y-66684950D01*
X68309636Y-66652371D01*
X68298912Y-66617019D01*
X68295000Y-66577303D01*
X68295000Y-66010697D01*
X68298912Y-65970981D01*
X68309636Y-65935629D01*
X68327050Y-65903050D01*
X68350489Y-65874489D01*
X68379050Y-65851050D01*
X68411629Y-65833636D01*
X68446981Y-65822912D01*
X68486697Y-65819000D01*
X68978303Y-65819000D01*
X69018019Y-65822912D01*
G37*
G36*
X76587119Y-65797512D02*
G01*
X76622471Y-65808236D01*
X76655050Y-65825650D01*
X76683611Y-65849089D01*
X76707050Y-65877650D01*
X76724464Y-65910229D01*
X76735188Y-65945581D01*
X76739100Y-65985297D01*
X76739100Y-66551903D01*
X76735188Y-66591619D01*
X76724464Y-66626971D01*
X76707050Y-66659550D01*
X76683611Y-66688111D01*
X76655050Y-66711550D01*
X76622471Y-66728964D01*
X76587119Y-66739688D01*
X76547403Y-66743600D01*
X76055797Y-66743600D01*
X76016081Y-66739688D01*
X75980729Y-66728964D01*
X75948150Y-66711550D01*
X75919589Y-66688111D01*
X75896150Y-66659550D01*
X75878736Y-66626971D01*
X75868012Y-66591619D01*
X75864100Y-66551903D01*
X75864100Y-65985297D01*
X75868012Y-65945581D01*
X75878736Y-65910229D01*
X75896150Y-65877650D01*
X75919589Y-65849089D01*
X75948150Y-65825650D01*
X75980729Y-65808236D01*
X76016081Y-65797512D01*
X76055797Y-65793600D01*
X76547403Y-65793600D01*
X76587119Y-65797512D01*
G37*
G36*
X75012119Y-65797512D02*
G01*
X75047471Y-65808236D01*
X75080050Y-65825650D01*
X75108611Y-65849089D01*
X75132050Y-65877650D01*
X75149464Y-65910229D01*
X75160188Y-65945581D01*
X75164100Y-65985297D01*
X75164100Y-66551903D01*
X75160188Y-66591619D01*
X75149464Y-66626971D01*
X75132050Y-66659550D01*
X75108611Y-66688111D01*
X75080050Y-66711550D01*
X75047471Y-66728964D01*
X75012119Y-66739688D01*
X74972403Y-66743600D01*
X74480797Y-66743600D01*
X74441081Y-66739688D01*
X74405729Y-66728964D01*
X74373150Y-66711550D01*
X74344589Y-66688111D01*
X74321150Y-66659550D01*
X74303736Y-66626971D01*
X74293012Y-66591619D01*
X74289100Y-66551903D01*
X74289100Y-65985297D01*
X74293012Y-65945581D01*
X74303736Y-65910229D01*
X74321150Y-65877650D01*
X74344589Y-65849089D01*
X74373150Y-65825650D01*
X74405729Y-65808236D01*
X74441081Y-65797512D01*
X74480797Y-65793600D01*
X74972403Y-65793600D01*
X75012119Y-65797512D01*
G37*
G36*
X80168619Y-65797512D02*
G01*
X80203971Y-65808236D01*
X80236550Y-65825650D01*
X80265111Y-65849089D01*
X80288550Y-65877650D01*
X80305964Y-65910229D01*
X80316688Y-65945581D01*
X80320600Y-65985297D01*
X80320600Y-66551903D01*
X80316688Y-66591619D01*
X80305964Y-66626971D01*
X80288550Y-66659550D01*
X80265111Y-66688111D01*
X80236550Y-66711550D01*
X80203971Y-66728964D01*
X80168619Y-66739688D01*
X80128903Y-66743600D01*
X79637297Y-66743600D01*
X79597581Y-66739688D01*
X79562229Y-66728964D01*
X79529650Y-66711550D01*
X79501089Y-66688111D01*
X79477650Y-66659550D01*
X79460236Y-66626971D01*
X79449512Y-66591619D01*
X79445600Y-66551903D01*
X79445600Y-65985297D01*
X79449512Y-65945581D01*
X79460236Y-65910229D01*
X79477650Y-65877650D01*
X79501089Y-65849089D01*
X79529650Y-65825650D01*
X79562229Y-65808236D01*
X79597581Y-65797512D01*
X79637297Y-65793600D01*
X80128903Y-65793600D01*
X80168619Y-65797512D01*
G37*
G36*
X78593619Y-65797512D02*
G01*
X78628971Y-65808236D01*
X78661550Y-65825650D01*
X78690111Y-65849089D01*
X78713550Y-65877650D01*
X78730964Y-65910229D01*
X78741688Y-65945581D01*
X78745600Y-65985297D01*
X78745600Y-66551903D01*
X78741688Y-66591619D01*
X78730964Y-66626971D01*
X78713550Y-66659550D01*
X78690111Y-66688111D01*
X78661550Y-66711550D01*
X78628971Y-66728964D01*
X78593619Y-66739688D01*
X78553903Y-66743600D01*
X78062297Y-66743600D01*
X78022581Y-66739688D01*
X77987229Y-66728964D01*
X77954650Y-66711550D01*
X77926089Y-66688111D01*
X77902650Y-66659550D01*
X77885236Y-66626971D01*
X77874512Y-66591619D01*
X77870600Y-66551903D01*
X77870600Y-65985297D01*
X77874512Y-65945581D01*
X77885236Y-65910229D01*
X77902650Y-65877650D01*
X77926089Y-65849089D01*
X77954650Y-65825650D01*
X77987229Y-65808236D01*
X78022581Y-65797512D01*
X78062297Y-65793600D01*
X78553903Y-65793600D01*
X78593619Y-65797512D01*
G37*
G36*
X74991601Y-64562600D02*
G01*
X74441603Y-64562600D01*
X74441603Y-63262600D01*
X74991601Y-63262600D01*
X74991601Y-64562600D01*
G37*
G36*
X76891600Y-64562600D02*
G01*
X76341602Y-64562600D01*
X76341602Y-63262600D01*
X76891600Y-63262600D01*
X76891600Y-64562600D01*
G37*
G36*
X78580419Y-63472912D02*
G01*
X78615771Y-63483636D01*
X78648350Y-63501050D01*
X78676911Y-63524489D01*
X78700350Y-63553050D01*
X78717764Y-63585629D01*
X78728488Y-63620981D01*
X78732400Y-63660697D01*
X78732400Y-64152303D01*
X78728488Y-64192019D01*
X78717764Y-64227371D01*
X78700350Y-64259950D01*
X78676911Y-64288511D01*
X78648350Y-64311950D01*
X78615771Y-64329364D01*
X78580419Y-64340088D01*
X78540703Y-64344000D01*
X77974097Y-64344000D01*
X77934381Y-64340088D01*
X77899029Y-64329364D01*
X77866450Y-64311950D01*
X77837889Y-64288511D01*
X77814450Y-64259950D01*
X77797036Y-64227371D01*
X77786312Y-64192019D01*
X77782400Y-64152303D01*
X77782400Y-63660697D01*
X77786312Y-63620981D01*
X77797036Y-63585629D01*
X77814450Y-63553050D01*
X77837889Y-63524489D01*
X77866450Y-63501050D01*
X77899029Y-63483636D01*
X77934381Y-63472912D01*
X77974097Y-63469000D01*
X78540703Y-63469000D01*
X78580419Y-63472912D01*
G37*
G36*
X81196619Y-63447512D02*
G01*
X81231971Y-63458236D01*
X81264550Y-63475650D01*
X81293111Y-63499089D01*
X81316550Y-63527650D01*
X81333964Y-63560229D01*
X81344688Y-63595581D01*
X81348600Y-63635297D01*
X81348600Y-64126903D01*
X81344688Y-64166619D01*
X81333964Y-64201971D01*
X81316550Y-64234550D01*
X81293111Y-64263111D01*
X81264550Y-64286550D01*
X81231971Y-64303964D01*
X81196619Y-64314688D01*
X81156903Y-64318600D01*
X80590297Y-64318600D01*
X80550581Y-64314688D01*
X80515229Y-64303964D01*
X80482650Y-64286550D01*
X80454089Y-64263111D01*
X80430650Y-64234550D01*
X80413236Y-64201971D01*
X80402512Y-64166619D01*
X80398600Y-64126903D01*
X80398600Y-63635297D01*
X80402512Y-63595581D01*
X80413236Y-63560229D01*
X80430650Y-63527650D01*
X80454089Y-63499089D01*
X80482650Y-63475650D01*
X80515229Y-63458236D01*
X80550581Y-63447512D01*
X80590297Y-63443600D01*
X81156903Y-63443600D01*
X81196619Y-63447512D01*
G37*
G36*
X64972304Y-64210993D02*
G01*
X63897696Y-64210993D01*
X63897696Y-63673007D01*
X64972304Y-63673007D01*
X64972304Y-64210993D01*
G37*
G36*
X53086410Y-60240119D02*
G01*
X53221420Y-60281074D01*
X53345848Y-60347583D01*
X53454912Y-60437088D01*
X53544417Y-60546152D01*
X53610926Y-60670580D01*
X53651881Y-60805590D01*
X53666000Y-60948947D01*
X53666000Y-63003053D01*
X53651881Y-63146410D01*
X53610926Y-63281420D01*
X53544417Y-63405848D01*
X53454912Y-63514912D01*
X53345848Y-63604417D01*
X53221420Y-63670926D01*
X53086410Y-63711881D01*
X52943053Y-63726000D01*
X51388947Y-63726000D01*
X51245590Y-63711881D01*
X51110580Y-63670926D01*
X50986152Y-63604417D01*
X50877088Y-63514912D01*
X50787583Y-63405848D01*
X50721074Y-63281420D01*
X50680119Y-63146410D01*
X50666000Y-63003053D01*
X50666000Y-60948947D01*
X50680119Y-60805590D01*
X50721074Y-60670580D01*
X50787583Y-60546152D01*
X50877088Y-60437088D01*
X50986152Y-60347583D01*
X51110580Y-60281074D01*
X51245590Y-60240119D01*
X51388947Y-60226000D01*
X52943053Y-60226000D01*
X53086410Y-60240119D01*
G37*
G36*
X59916000Y-63726000D02*
G01*
X56416000Y-63726000D01*
X56416000Y-60226000D01*
X59916000Y-60226000D01*
X59916000Y-63726000D01*
G37*
G36*
X62885788Y-62728175D02*
G01*
X62936249Y-62743482D01*
X62982755Y-62768339D01*
X63023517Y-62801792D01*
X63056970Y-62842554D01*
X63081827Y-62889060D01*
X63097134Y-62939521D01*
X63102303Y-62991999D01*
X63102303Y-62992001D01*
X63097134Y-63044479D01*
X63081827Y-63094940D01*
X63056970Y-63141446D01*
X63023517Y-63182208D01*
X62982755Y-63215661D01*
X62936249Y-63240518D01*
X62885788Y-63255825D01*
X62833310Y-63260994D01*
X62296688Y-63260994D01*
X62244210Y-63255825D01*
X62193749Y-63240518D01*
X62147243Y-63215661D01*
X62106481Y-63182208D01*
X62073028Y-63141446D01*
X62048171Y-63094940D01*
X62032864Y-63044479D01*
X62027695Y-62992001D01*
X62027695Y-62991999D01*
X62032864Y-62939521D01*
X62048171Y-62889060D01*
X62073028Y-62842554D01*
X62106481Y-62801792D01*
X62147243Y-62768339D01*
X62193749Y-62743482D01*
X62244210Y-62728175D01*
X62296688Y-62723006D01*
X62833310Y-62723006D01*
X62885788Y-62728175D01*
G37*
G36*
X78580419Y-61897912D02*
G01*
X78615771Y-61908636D01*
X78648350Y-61926050D01*
X78676911Y-61949489D01*
X78700350Y-61978050D01*
X78717764Y-62010629D01*
X78728488Y-62045981D01*
X78732400Y-62085697D01*
X78732400Y-62577303D01*
X78728488Y-62617019D01*
X78717764Y-62652371D01*
X78700350Y-62684950D01*
X78676911Y-62713511D01*
X78648350Y-62736950D01*
X78615771Y-62754364D01*
X78580419Y-62765088D01*
X78540703Y-62769000D01*
X77974097Y-62769000D01*
X77934381Y-62765088D01*
X77899029Y-62754364D01*
X77866450Y-62736950D01*
X77837889Y-62713511D01*
X77814450Y-62684950D01*
X77797036Y-62652371D01*
X77786312Y-62617019D01*
X77782400Y-62577303D01*
X77782400Y-62085697D01*
X77786312Y-62045981D01*
X77797036Y-62010629D01*
X77814450Y-61978050D01*
X77837889Y-61949489D01*
X77866450Y-61926050D01*
X77899029Y-61908636D01*
X77934381Y-61897912D01*
X77974097Y-61894000D01*
X78540703Y-61894000D01*
X78580419Y-61897912D01*
G37*
G36*
X81196619Y-61872512D02*
G01*
X81231971Y-61883236D01*
X81264550Y-61900650D01*
X81293111Y-61924089D01*
X81316550Y-61952650D01*
X81333964Y-61985229D01*
X81344688Y-62020581D01*
X81348600Y-62060297D01*
X81348600Y-62551903D01*
X81344688Y-62591619D01*
X81333964Y-62626971D01*
X81316550Y-62659550D01*
X81293111Y-62688111D01*
X81264550Y-62711550D01*
X81231971Y-62728964D01*
X81196619Y-62739688D01*
X81156903Y-62743600D01*
X80590297Y-62743600D01*
X80550581Y-62739688D01*
X80515229Y-62728964D01*
X80482650Y-62711550D01*
X80454089Y-62688111D01*
X80430650Y-62659550D01*
X80413236Y-62626971D01*
X80402512Y-62591619D01*
X80398600Y-62551903D01*
X80398600Y-62060297D01*
X80402512Y-62020581D01*
X80413236Y-61985229D01*
X80430650Y-61952650D01*
X80454089Y-61924089D01*
X80482650Y-61900650D01*
X80515229Y-61883236D01*
X80550581Y-61872512D01*
X80590297Y-61868600D01*
X81156903Y-61868600D01*
X81196619Y-61872512D01*
G37*
G36*
X64755789Y-61778175D02*
G01*
X64806250Y-61793482D01*
X64852756Y-61818339D01*
X64893518Y-61851792D01*
X64926971Y-61892554D01*
X64951828Y-61939060D01*
X64967135Y-61989521D01*
X64972304Y-62041999D01*
X64972304Y-62042001D01*
X64967135Y-62094479D01*
X64951828Y-62144940D01*
X64926971Y-62191446D01*
X64893518Y-62232208D01*
X64852756Y-62265661D01*
X64806250Y-62290518D01*
X64755789Y-62305825D01*
X64703311Y-62310994D01*
X64166689Y-62310994D01*
X64114211Y-62305825D01*
X64063750Y-62290518D01*
X64017244Y-62265661D01*
X63976482Y-62232208D01*
X63943029Y-62191446D01*
X63918172Y-62144940D01*
X63902865Y-62094479D01*
X63897696Y-62042001D01*
X63897696Y-62041999D01*
X63902865Y-61989521D01*
X63918172Y-61939060D01*
X63943029Y-61892554D01*
X63976482Y-61851792D01*
X64017244Y-61818339D01*
X64063750Y-61793482D01*
X64114211Y-61778175D01*
X64166689Y-61773006D01*
X64703311Y-61773006D01*
X64755789Y-61778175D01*
G37*
G36*
X75941600Y-62162600D02*
G01*
X75391602Y-62162600D01*
X75391602Y-60862600D01*
X75941600Y-60862600D01*
X75941600Y-62162600D01*
G37*
G36*
X74991601Y-62162600D02*
G01*
X74441603Y-62162600D01*
X74441603Y-60862600D01*
X74991601Y-60862600D01*
X74991601Y-62162600D01*
G37*
G36*
X76891600Y-62162600D02*
G01*
X76341602Y-62162600D01*
X76341602Y-60862600D01*
X76891600Y-60862600D01*
X76891600Y-62162600D01*
G37*
G36*
X75037619Y-58406112D02*
G01*
X75072971Y-58416836D01*
X75105550Y-58434250D01*
X75134111Y-58457689D01*
X75157550Y-58486250D01*
X75174964Y-58518829D01*
X75185688Y-58554181D01*
X75189600Y-58593897D01*
X75189600Y-59160503D01*
X75185688Y-59200219D01*
X75174964Y-59235571D01*
X75157550Y-59268150D01*
X75134111Y-59296711D01*
X75105550Y-59320150D01*
X75072971Y-59337564D01*
X75037619Y-59348288D01*
X74997903Y-59352200D01*
X74506297Y-59352200D01*
X74466581Y-59348288D01*
X74431229Y-59337564D01*
X74398650Y-59320150D01*
X74370089Y-59296711D01*
X74346650Y-59268150D01*
X74329236Y-59235571D01*
X74318512Y-59200219D01*
X74314600Y-59160503D01*
X74314600Y-58593897D01*
X74318512Y-58554181D01*
X74329236Y-58518829D01*
X74346650Y-58486250D01*
X74370089Y-58457689D01*
X74398650Y-58434250D01*
X74431229Y-58416836D01*
X74466581Y-58406112D01*
X74506297Y-58402200D01*
X74997903Y-58402200D01*
X75037619Y-58406112D01*
G37*
G36*
X76612619Y-58406112D02*
G01*
X76647971Y-58416836D01*
X76680550Y-58434250D01*
X76709111Y-58457689D01*
X76732550Y-58486250D01*
X76749964Y-58518829D01*
X76760688Y-58554181D01*
X76764600Y-58593897D01*
X76764600Y-59160503D01*
X76760688Y-59200219D01*
X76749964Y-59235571D01*
X76732550Y-59268150D01*
X76709111Y-59296711D01*
X76680550Y-59320150D01*
X76647971Y-59337564D01*
X76612619Y-59348288D01*
X76572903Y-59352200D01*
X76081297Y-59352200D01*
X76041581Y-59348288D01*
X76006229Y-59337564D01*
X75973650Y-59320150D01*
X75945089Y-59296711D01*
X75921650Y-59268150D01*
X75904236Y-59235571D01*
X75893512Y-59200219D01*
X75889600Y-59160503D01*
X75889600Y-58593897D01*
X75893512Y-58554181D01*
X75904236Y-58518829D01*
X75921650Y-58486250D01*
X75945089Y-58457689D01*
X75973650Y-58434250D01*
X76006229Y-58416836D01*
X76041581Y-58406112D01*
X76081297Y-58402200D01*
X76572903Y-58402200D01*
X76612619Y-58406112D01*
G37*
G36*
X67675014Y-57841058D02*
G01*
X67784207Y-57886287D01*
X67882478Y-57951950D01*
X67966050Y-58035522D01*
X68031713Y-58133793D01*
X68076942Y-58242986D01*
X68100000Y-58358905D01*
X68100000Y-58477095D01*
X68076942Y-58593014D01*
X68031713Y-58702207D01*
X67966050Y-58800478D01*
X67882478Y-58884050D01*
X67784207Y-58949713D01*
X67675014Y-58994942D01*
X67559095Y-59018000D01*
X67440905Y-59018000D01*
X67324986Y-58994942D01*
X67215793Y-58949713D01*
X67117522Y-58884050D01*
X67033950Y-58800478D01*
X66968287Y-58702207D01*
X66923058Y-58593014D01*
X66900000Y-58477095D01*
X66900000Y-58358905D01*
X66923058Y-58242986D01*
X66968287Y-58133793D01*
X67033950Y-58035522D01*
X67117522Y-57951950D01*
X67215793Y-57886287D01*
X67324986Y-57841058D01*
X67440905Y-57818000D01*
X67559095Y-57818000D01*
X67675014Y-57841058D01*
G37*
G36*
X69391347Y-57283388D02*
G01*
X69500540Y-57328617D01*
X69598811Y-57394280D01*
X69682383Y-57477852D01*
X69748046Y-57576123D01*
X69793275Y-57685316D01*
X69816333Y-57801235D01*
X69816333Y-57919425D01*
X69793275Y-58035344D01*
X69748046Y-58144537D01*
X69682383Y-58242808D01*
X69598811Y-58326380D01*
X69500540Y-58392043D01*
X69391347Y-58437272D01*
X69275428Y-58460330D01*
X69157238Y-58460330D01*
X69041319Y-58437272D01*
X68932126Y-58392043D01*
X68833855Y-58326380D01*
X68750283Y-58242808D01*
X68684620Y-58144537D01*
X68639391Y-58035344D01*
X68616333Y-57919425D01*
X68616333Y-57801235D01*
X68639391Y-57685316D01*
X68684620Y-57576123D01*
X68750283Y-57477852D01*
X68833855Y-57394280D01*
X68932126Y-57328617D01*
X69041319Y-57283388D01*
X69157238Y-57260330D01*
X69275428Y-57260330D01*
X69391347Y-57283388D01*
G37*
G36*
X65958681Y-57283388D02*
G01*
X66067874Y-57328617D01*
X66166145Y-57394280D01*
X66249717Y-57477852D01*
X66315380Y-57576123D01*
X66360609Y-57685316D01*
X66383667Y-57801235D01*
X66383667Y-57919425D01*
X66360609Y-58035344D01*
X66315380Y-58144537D01*
X66249717Y-58242808D01*
X66166145Y-58326380D01*
X66067874Y-58392043D01*
X65958681Y-58437272D01*
X65842762Y-58460330D01*
X65724572Y-58460330D01*
X65608653Y-58437272D01*
X65499460Y-58392043D01*
X65401189Y-58326380D01*
X65317617Y-58242808D01*
X65251954Y-58144537D01*
X65206725Y-58035344D01*
X65183667Y-57919425D01*
X65183667Y-57801235D01*
X65206725Y-57685316D01*
X65251954Y-57576123D01*
X65317617Y-57477852D01*
X65401189Y-57394280D01*
X65499460Y-57328617D01*
X65608653Y-57283388D01*
X65724572Y-57260330D01*
X65842762Y-57260330D01*
X65958681Y-57283388D01*
G37*
G36*
X76612619Y-56374112D02*
G01*
X76647971Y-56384836D01*
X76680550Y-56402250D01*
X76709111Y-56425689D01*
X76732550Y-56454250D01*
X76749964Y-56486829D01*
X76760688Y-56522181D01*
X76764600Y-56561897D01*
X76764600Y-57128503D01*
X76760688Y-57168219D01*
X76749964Y-57203571D01*
X76732550Y-57236150D01*
X76709111Y-57264711D01*
X76680550Y-57288150D01*
X76647971Y-57305564D01*
X76612619Y-57316288D01*
X76572903Y-57320200D01*
X76081297Y-57320200D01*
X76041581Y-57316288D01*
X76006229Y-57305564D01*
X75973650Y-57288150D01*
X75945089Y-57264711D01*
X75921650Y-57236150D01*
X75904236Y-57203571D01*
X75893512Y-57168219D01*
X75889600Y-57128503D01*
X75889600Y-56561897D01*
X75893512Y-56522181D01*
X75904236Y-56486829D01*
X75921650Y-56454250D01*
X75945089Y-56425689D01*
X75973650Y-56402250D01*
X76006229Y-56384836D01*
X76041581Y-56374112D01*
X76081297Y-56370200D01*
X76572903Y-56370200D01*
X76612619Y-56374112D01*
G37*
G36*
X75037619Y-56374112D02*
G01*
X75072971Y-56384836D01*
X75105550Y-56402250D01*
X75134111Y-56425689D01*
X75157550Y-56454250D01*
X75174964Y-56486829D01*
X75185688Y-56522181D01*
X75189600Y-56561897D01*
X75189600Y-57128503D01*
X75185688Y-57168219D01*
X75174964Y-57203571D01*
X75157550Y-57236150D01*
X75134111Y-57264711D01*
X75105550Y-57288150D01*
X75072971Y-57305564D01*
X75037619Y-57316288D01*
X74997903Y-57320200D01*
X74506297Y-57320200D01*
X74466581Y-57316288D01*
X74431229Y-57305564D01*
X74398650Y-57288150D01*
X74370089Y-57264711D01*
X74346650Y-57236150D01*
X74329236Y-57203571D01*
X74318512Y-57168219D01*
X74314600Y-57128503D01*
X74314600Y-56561897D01*
X74318512Y-56522181D01*
X74329236Y-56486829D01*
X74346650Y-56454250D01*
X74370089Y-56425689D01*
X74398650Y-56402250D01*
X74431229Y-56384836D01*
X74466581Y-56374112D01*
X74506297Y-56370200D01*
X74997903Y-56370200D01*
X75037619Y-56374112D01*
G37*
G36*
X70452099Y-55823388D02*
G01*
X70561292Y-55868617D01*
X70659563Y-55934280D01*
X70743135Y-56017852D01*
X70808798Y-56116123D01*
X70854027Y-56225316D01*
X70877085Y-56341235D01*
X70877085Y-56459425D01*
X70854027Y-56575344D01*
X70808798Y-56684537D01*
X70743135Y-56782808D01*
X70659563Y-56866380D01*
X70561292Y-56932043D01*
X70452099Y-56977272D01*
X70336180Y-57000330D01*
X70217990Y-57000330D01*
X70102071Y-56977272D01*
X69992878Y-56932043D01*
X69894607Y-56866380D01*
X69811035Y-56782808D01*
X69745372Y-56684537D01*
X69700143Y-56575344D01*
X69677085Y-56459425D01*
X69677085Y-56341235D01*
X69700143Y-56225316D01*
X69745372Y-56116123D01*
X69811035Y-56017852D01*
X69894607Y-55934280D01*
X69992878Y-55868617D01*
X70102071Y-55823388D01*
X70217990Y-55800330D01*
X70336180Y-55800330D01*
X70452099Y-55823388D01*
G37*
G36*
X64897929Y-55823388D02*
G01*
X65007122Y-55868617D01*
X65105393Y-55934280D01*
X65188965Y-56017852D01*
X65254628Y-56116123D01*
X65299857Y-56225316D01*
X65322915Y-56341235D01*
X65322915Y-56459425D01*
X65299857Y-56575344D01*
X65254628Y-56684537D01*
X65188965Y-56782808D01*
X65105393Y-56866380D01*
X65007122Y-56932043D01*
X64897929Y-56977272D01*
X64782010Y-57000330D01*
X64663820Y-57000330D01*
X64547901Y-56977272D01*
X64438708Y-56932043D01*
X64340437Y-56866380D01*
X64256865Y-56782808D01*
X64191202Y-56684537D01*
X64145973Y-56575344D01*
X64122915Y-56459425D01*
X64122915Y-56341235D01*
X64145973Y-56225316D01*
X64191202Y-56116123D01*
X64256865Y-56017852D01*
X64340437Y-55934280D01*
X64438708Y-55868617D01*
X64547901Y-55823388D01*
X64663820Y-55800330D01*
X64782010Y-55800330D01*
X64897929Y-55823388D01*
G37*
G36*
X76612619Y-54469112D02*
G01*
X76647971Y-54479836D01*
X76680550Y-54497250D01*
X76709111Y-54520689D01*
X76732550Y-54549250D01*
X76749964Y-54581829D01*
X76760688Y-54617181D01*
X76764600Y-54656897D01*
X76764600Y-55223503D01*
X76760688Y-55263219D01*
X76749964Y-55298571D01*
X76732550Y-55331150D01*
X76709111Y-55359711D01*
X76680550Y-55383150D01*
X76647971Y-55400564D01*
X76612619Y-55411288D01*
X76572903Y-55415200D01*
X76081297Y-55415200D01*
X76041581Y-55411288D01*
X76006229Y-55400564D01*
X75973650Y-55383150D01*
X75945089Y-55359711D01*
X75921650Y-55331150D01*
X75904236Y-55298571D01*
X75893512Y-55263219D01*
X75889600Y-55223503D01*
X75889600Y-54656897D01*
X75893512Y-54617181D01*
X75904236Y-54581829D01*
X75921650Y-54549250D01*
X75945089Y-54520689D01*
X75973650Y-54497250D01*
X76006229Y-54479836D01*
X76041581Y-54469112D01*
X76081297Y-54465200D01*
X76572903Y-54465200D01*
X76612619Y-54469112D01*
G37*
G36*
X75037619Y-54469112D02*
G01*
X75072971Y-54479836D01*
X75105550Y-54497250D01*
X75134111Y-54520689D01*
X75157550Y-54549250D01*
X75174964Y-54581829D01*
X75185688Y-54617181D01*
X75189600Y-54656897D01*
X75189600Y-55223503D01*
X75185688Y-55263219D01*
X75174964Y-55298571D01*
X75157550Y-55331150D01*
X75134111Y-55359711D01*
X75105550Y-55383150D01*
X75072971Y-55400564D01*
X75037619Y-55411288D01*
X74997903Y-55415200D01*
X74506297Y-55415200D01*
X74466581Y-55411288D01*
X74431229Y-55400564D01*
X74398650Y-55383150D01*
X74370089Y-55359711D01*
X74346650Y-55331150D01*
X74329236Y-55298571D01*
X74318512Y-55263219D01*
X74314600Y-55223503D01*
X74314600Y-54656897D01*
X74318512Y-54617181D01*
X74329236Y-54581829D01*
X74346650Y-54549250D01*
X74370089Y-54520689D01*
X74398650Y-54497250D01*
X74431229Y-54479836D01*
X74466581Y-54469112D01*
X74506297Y-54465200D01*
X74997903Y-54465200D01*
X75037619Y-54469112D01*
G37*
G36*
X64897929Y-54018728D02*
G01*
X65007122Y-54063957D01*
X65105393Y-54129620D01*
X65188965Y-54213192D01*
X65254628Y-54311463D01*
X65299857Y-54420656D01*
X65322915Y-54536575D01*
X65322915Y-54654765D01*
X65299857Y-54770684D01*
X65254628Y-54879877D01*
X65188965Y-54978148D01*
X65105393Y-55061720D01*
X65007122Y-55127383D01*
X64897929Y-55172612D01*
X64782010Y-55195670D01*
X64663820Y-55195670D01*
X64547901Y-55172612D01*
X64438708Y-55127383D01*
X64340437Y-55061720D01*
X64256865Y-54978148D01*
X64191202Y-54879877D01*
X64145973Y-54770684D01*
X64122915Y-54654765D01*
X64122915Y-54536575D01*
X64145973Y-54420656D01*
X64191202Y-54311463D01*
X64256865Y-54213192D01*
X64340437Y-54129620D01*
X64438708Y-54063957D01*
X64547901Y-54018728D01*
X64663820Y-53995670D01*
X64782010Y-53995670D01*
X64897929Y-54018728D01*
G37*
G36*
X70452099Y-54018728D02*
G01*
X70561292Y-54063957D01*
X70659563Y-54129620D01*
X70743135Y-54213192D01*
X70808798Y-54311463D01*
X70854027Y-54420656D01*
X70877085Y-54536575D01*
X70877085Y-54654765D01*
X70854027Y-54770684D01*
X70808798Y-54879877D01*
X70743135Y-54978148D01*
X70659563Y-55061720D01*
X70561292Y-55127383D01*
X70452099Y-55172612D01*
X70336180Y-55195670D01*
X70217990Y-55195670D01*
X70102071Y-55172612D01*
X69992878Y-55127383D01*
X69894607Y-55061720D01*
X69811035Y-54978148D01*
X69745372Y-54879877D01*
X69700143Y-54770684D01*
X69677085Y-54654765D01*
X69677085Y-54536575D01*
X69700143Y-54420656D01*
X69745372Y-54311463D01*
X69811035Y-54213192D01*
X69894607Y-54129620D01*
X69992878Y-54063957D01*
X70102071Y-54018728D01*
X70217990Y-53995670D01*
X70336180Y-53995670D01*
X70452099Y-54018728D01*
G37*
G36*
X53995917Y-53052296D02*
G01*
X54035028Y-53064160D01*
X54071062Y-53083420D01*
X54102653Y-53109347D01*
X54128580Y-53140938D01*
X54147840Y-53176972D01*
X54159704Y-53216083D01*
X54164000Y-53259697D01*
X54164000Y-54436303D01*
X54159704Y-54479917D01*
X54147840Y-54519028D01*
X54128580Y-54555062D01*
X54102653Y-54586653D01*
X54071062Y-54612580D01*
X54035028Y-54631840D01*
X53995917Y-54643704D01*
X53952303Y-54648000D01*
X51375697Y-54648000D01*
X51332083Y-54643704D01*
X51292972Y-54631840D01*
X51256938Y-54612580D01*
X51225347Y-54586653D01*
X51199420Y-54555062D01*
X51180160Y-54519028D01*
X51168296Y-54479917D01*
X51164000Y-54436303D01*
X51164000Y-53259697D01*
X51168296Y-53216083D01*
X51180160Y-53176972D01*
X51199420Y-53140938D01*
X51225347Y-53109347D01*
X51256938Y-53083420D01*
X51292972Y-53064160D01*
X51332083Y-53052296D01*
X51375697Y-53048000D01*
X53952303Y-53048000D01*
X53995917Y-53052296D01*
G37*
G36*
X58395917Y-53052296D02*
G01*
X58435028Y-53064160D01*
X58471062Y-53083420D01*
X58502653Y-53109347D01*
X58528580Y-53140938D01*
X58547840Y-53176972D01*
X58559704Y-53216083D01*
X58564000Y-53259697D01*
X58564000Y-54436303D01*
X58559704Y-54479917D01*
X58547840Y-54519028D01*
X58528580Y-54555062D01*
X58502653Y-54586653D01*
X58471062Y-54612580D01*
X58435028Y-54631840D01*
X58395917Y-54643704D01*
X58352303Y-54648000D01*
X55775697Y-54648000D01*
X55732083Y-54643704D01*
X55692972Y-54631840D01*
X55656938Y-54612580D01*
X55625347Y-54586653D01*
X55599420Y-54555062D01*
X55580160Y-54519028D01*
X55568296Y-54479917D01*
X55564000Y-54436303D01*
X55564000Y-53259697D01*
X55568296Y-53216083D01*
X55580160Y-53176972D01*
X55599420Y-53140938D01*
X55625347Y-53109347D01*
X55656938Y-53083420D01*
X55692972Y-53064160D01*
X55732083Y-53052296D01*
X55775697Y-53048000D01*
X58352303Y-53048000D01*
X58395917Y-53052296D01*
G37*
G36*
X65958681Y-52558728D02*
G01*
X66067874Y-52603957D01*
X66166145Y-52669620D01*
X66249717Y-52753192D01*
X66315380Y-52851463D01*
X66360609Y-52960656D01*
X66383667Y-53076575D01*
X66383667Y-53194765D01*
X66360609Y-53310684D01*
X66315380Y-53419877D01*
X66249717Y-53518148D01*
X66166145Y-53601720D01*
X66067874Y-53667383D01*
X65958681Y-53712612D01*
X65842762Y-53735670D01*
X65724572Y-53735670D01*
X65608653Y-53712612D01*
X65499460Y-53667383D01*
X65401189Y-53601720D01*
X65317617Y-53518148D01*
X65251954Y-53419877D01*
X65206725Y-53310684D01*
X65183667Y-53194765D01*
X65183667Y-53076575D01*
X65206725Y-52960656D01*
X65251954Y-52851463D01*
X65317617Y-52753192D01*
X65401189Y-52669620D01*
X65499460Y-52603957D01*
X65608653Y-52558728D01*
X65724572Y-52535670D01*
X65842762Y-52535670D01*
X65958681Y-52558728D01*
G37*
G36*
X69391347Y-52558728D02*
G01*
X69500540Y-52603957D01*
X69598811Y-52669620D01*
X69682383Y-52753192D01*
X69748046Y-52851463D01*
X69793275Y-52960656D01*
X69816333Y-53076575D01*
X69816333Y-53194765D01*
X69793275Y-53310684D01*
X69748046Y-53419877D01*
X69682383Y-53518148D01*
X69598811Y-53601720D01*
X69500540Y-53667383D01*
X69391347Y-53712612D01*
X69275428Y-53735670D01*
X69157238Y-53735670D01*
X69041319Y-53712612D01*
X68932126Y-53667383D01*
X68833855Y-53601720D01*
X68750283Y-53518148D01*
X68684620Y-53419877D01*
X68639391Y-53310684D01*
X68616333Y-53194765D01*
X68616333Y-53076575D01*
X68639391Y-52960656D01*
X68684620Y-52851463D01*
X68750283Y-52753192D01*
X68833855Y-52669620D01*
X68932126Y-52603957D01*
X69041319Y-52558728D01*
X69157238Y-52535670D01*
X69275428Y-52535670D01*
X69391347Y-52558728D01*
G37*
G36*
X67617617Y-51786681D02*
G01*
X67617620Y-51786682D01*
X67617621Y-51786682D01*
X67730721Y-51820990D01*
X67834955Y-51876704D01*
X67926317Y-51951683D01*
X68001296Y-52043045D01*
X68057010Y-52147279D01*
X68088703Y-52251758D01*
X68091319Y-52260383D01*
X68100000Y-52348529D01*
X68100000Y-52807472D01*
X68091319Y-52895617D01*
X68091318Y-52895620D01*
X68091318Y-52895621D01*
X68057010Y-53008721D01*
X68001296Y-53112955D01*
X67926317Y-53204317D01*
X67834954Y-53279296D01*
X67730720Y-53335010D01*
X67617620Y-53369318D01*
X67617619Y-53369318D01*
X67617616Y-53369319D01*
X67500000Y-53380903D01*
X67382383Y-53369319D01*
X67382380Y-53369318D01*
X67382379Y-53369318D01*
X67269279Y-53335010D01*
X67165045Y-53279296D01*
X67073683Y-53204317D01*
X66998704Y-53112954D01*
X66942990Y-53008720D01*
X66908682Y-52895620D01*
X66908682Y-52895619D01*
X66908681Y-52895616D01*
X66900000Y-52807471D01*
X66900000Y-52348528D01*
X66908681Y-52260383D01*
X66908682Y-52260379D01*
X66942990Y-52147279D01*
X66998705Y-52043045D01*
X67073684Y-51951683D01*
X67165046Y-51876704D01*
X67269280Y-51820990D01*
X67382380Y-51786682D01*
X67382381Y-51786682D01*
X67382384Y-51786681D01*
X67500000Y-51775097D01*
X67617617Y-51786681D01*
G37*
M02*
