%TF.GenerationSoftware,KiCad,Pcbnew,(5.1.6)-1*%
%TF.CreationDate,2021-01-16T21:26:58+01:00*%
%TF.ProjectId,hardware-smart-gaz-detector-extension-board,68617264-7761-4726-952d-736d6172742d,rev?*%
%TF.SameCoordinates,Original*%
%TF.FileFunction,Legend,Top*%
%TF.FilePolarity,Positive*%
%FSLAX46Y46*%
G04 Gerber Fmt 4.6, Leading zero omitted, Abs format (unit mm)*
G04 Created by KiCad (PCBNEW (5.1.6)-1) date 2021-01-16 21:26:58*
%MOMM*%
%LPD*%
G01*
G04 APERTURE LIST*
%ADD10C,0.152400*%
%ADD11C,0.120000*%
%ADD12C,0.250000*%
%ADD13C,0.150000*%
%ADD14C,0.249999*%
G04 APERTURE END LIST*
D10*
X77615726Y-52116666D02*
X77615726Y-51650000D01*
X77615726Y-51783333D02*
X77649060Y-51716666D01*
X77682393Y-51683333D01*
X77749060Y-51650000D01*
X77815726Y-51650000D01*
X78315726Y-52083333D02*
X78249060Y-52116666D01*
X78115726Y-52116666D01*
X78049060Y-52083333D01*
X78015726Y-52016666D01*
X78015726Y-51750000D01*
X78049060Y-51683333D01*
X78115726Y-51650000D01*
X78249060Y-51650000D01*
X78315726Y-51683333D01*
X78349060Y-51750000D01*
X78349060Y-51816666D01*
X78015726Y-51883333D01*
X78582393Y-51650000D02*
X78749060Y-52116666D01*
X78915726Y-51650000D01*
X80082393Y-52116666D02*
X79682393Y-52116666D01*
X79882393Y-52116666D02*
X79882393Y-51416666D01*
X79815726Y-51516666D01*
X79749060Y-51583333D01*
X79682393Y-51616666D01*
X80382393Y-52050000D02*
X80415726Y-52083333D01*
X80382393Y-52116666D01*
X80349060Y-52083333D01*
X80382393Y-52050000D01*
X80382393Y-52116666D01*
X80849060Y-51416666D02*
X80915726Y-51416666D01*
X80982393Y-51450000D01*
X81015726Y-51483333D01*
X81049060Y-51550000D01*
X81082393Y-51683333D01*
X81082393Y-51850000D01*
X81049060Y-51983333D01*
X81015726Y-52050000D01*
X80982393Y-52083333D01*
X80915726Y-52116666D01*
X80849060Y-52116666D01*
X80782393Y-52083333D01*
X80749060Y-52050000D01*
X80715726Y-51983333D01*
X80682393Y-51850000D01*
X80682393Y-51683333D01*
X80715726Y-51550000D01*
X80749060Y-51483333D01*
X80782393Y-51450000D01*
X80849060Y-51416666D01*
X51515726Y-71098800D02*
X51749060Y-71098800D01*
X51849060Y-71465466D02*
X51515726Y-71465466D01*
X51515726Y-70765466D01*
X51849060Y-70765466D01*
X52082393Y-71465466D02*
X52449060Y-70998800D01*
X52082393Y-70998800D02*
X52449060Y-71465466D01*
X52615726Y-70998800D02*
X52882393Y-70998800D01*
X52715726Y-70765466D02*
X52715726Y-71365466D01*
X52749060Y-71432133D01*
X52815726Y-71465466D01*
X52882393Y-71465466D01*
X53382393Y-71432133D02*
X53315726Y-71465466D01*
X53182393Y-71465466D01*
X53115726Y-71432133D01*
X53082393Y-71365466D01*
X53082393Y-71098800D01*
X53115726Y-71032133D01*
X53182393Y-70998800D01*
X53315726Y-70998800D01*
X53382393Y-71032133D01*
X53415726Y-71098800D01*
X53415726Y-71165466D01*
X53082393Y-71232133D01*
X53715726Y-70998800D02*
X53715726Y-71465466D01*
X53715726Y-71065466D02*
X53749060Y-71032133D01*
X53815726Y-70998800D01*
X53915726Y-70998800D01*
X53982393Y-71032133D01*
X54015726Y-71098800D01*
X54015726Y-71465466D01*
X54315726Y-71432133D02*
X54382393Y-71465466D01*
X54515726Y-71465466D01*
X54582393Y-71432133D01*
X54615726Y-71365466D01*
X54615726Y-71332133D01*
X54582393Y-71265466D01*
X54515726Y-71232133D01*
X54415726Y-71232133D01*
X54349060Y-71198800D01*
X54315726Y-71132133D01*
X54315726Y-71098800D01*
X54349060Y-71032133D01*
X54415726Y-70998800D01*
X54515726Y-70998800D01*
X54582393Y-71032133D01*
X54915726Y-71465466D02*
X54915726Y-70998800D01*
X54915726Y-70765466D02*
X54882393Y-70798800D01*
X54915726Y-70832133D01*
X54949060Y-70798800D01*
X54915726Y-70765466D01*
X54915726Y-70832133D01*
X55349060Y-71465466D02*
X55282393Y-71432133D01*
X55249060Y-71398800D01*
X55215726Y-71332133D01*
X55215726Y-71132133D01*
X55249060Y-71065466D01*
X55282393Y-71032133D01*
X55349060Y-70998800D01*
X55449060Y-70998800D01*
X55515726Y-71032133D01*
X55549060Y-71065466D01*
X55582393Y-71132133D01*
X55582393Y-71332133D01*
X55549060Y-71398800D01*
X55515726Y-71432133D01*
X55449060Y-71465466D01*
X55349060Y-71465466D01*
X55882393Y-70998800D02*
X55882393Y-71465466D01*
X55882393Y-71065466D02*
X55915726Y-71032133D01*
X55982393Y-70998800D01*
X56082393Y-70998800D01*
X56149060Y-71032133D01*
X56182393Y-71098800D01*
X56182393Y-71465466D01*
X57282393Y-71098800D02*
X57382393Y-71132133D01*
X57415726Y-71165466D01*
X57449060Y-71232133D01*
X57449060Y-71332133D01*
X57415726Y-71398800D01*
X57382393Y-71432133D01*
X57315726Y-71465466D01*
X57049060Y-71465466D01*
X57049060Y-70765466D01*
X57282393Y-70765466D01*
X57349060Y-70798800D01*
X57382393Y-70832133D01*
X57415726Y-70898800D01*
X57415726Y-70965466D01*
X57382393Y-71032133D01*
X57349060Y-71065466D01*
X57282393Y-71098800D01*
X57049060Y-71098800D01*
X57849060Y-71465466D02*
X57782393Y-71432133D01*
X57749060Y-71398800D01*
X57715726Y-71332133D01*
X57715726Y-71132133D01*
X57749060Y-71065466D01*
X57782393Y-71032133D01*
X57849060Y-70998800D01*
X57949060Y-70998800D01*
X58015726Y-71032133D01*
X58049060Y-71065466D01*
X58082393Y-71132133D01*
X58082393Y-71332133D01*
X58049060Y-71398800D01*
X58015726Y-71432133D01*
X57949060Y-71465466D01*
X57849060Y-71465466D01*
X58682393Y-71465466D02*
X58682393Y-71098800D01*
X58649060Y-71032133D01*
X58582393Y-70998800D01*
X58449060Y-70998800D01*
X58382393Y-71032133D01*
X58682393Y-71432133D02*
X58615726Y-71465466D01*
X58449060Y-71465466D01*
X58382393Y-71432133D01*
X58349060Y-71365466D01*
X58349060Y-71298800D01*
X58382393Y-71232133D01*
X58449060Y-71198800D01*
X58615726Y-71198800D01*
X58682393Y-71165466D01*
X59015726Y-71465466D02*
X59015726Y-70998800D01*
X59015726Y-71132133D02*
X59049060Y-71065466D01*
X59082393Y-71032133D01*
X59149060Y-70998800D01*
X59215726Y-70998800D01*
X59749060Y-71465466D02*
X59749060Y-70765466D01*
X59749060Y-71432133D02*
X59682393Y-71465466D01*
X59549060Y-71465466D01*
X59482393Y-71432133D01*
X59449060Y-71398800D01*
X59415726Y-71332133D01*
X59415726Y-71132133D01*
X59449060Y-71065466D01*
X59482393Y-71032133D01*
X59549060Y-70998800D01*
X59682393Y-70998800D01*
X59749060Y-71032133D01*
X51482393Y-72634533D02*
X51582393Y-72667866D01*
X51749060Y-72667866D01*
X51815726Y-72634533D01*
X51849060Y-72601200D01*
X51882393Y-72534533D01*
X51882393Y-72467866D01*
X51849060Y-72401200D01*
X51815726Y-72367866D01*
X51749060Y-72334533D01*
X51615726Y-72301200D01*
X51549060Y-72267866D01*
X51515726Y-72234533D01*
X51482393Y-72167866D01*
X51482393Y-72101200D01*
X51515726Y-72034533D01*
X51549060Y-72001200D01*
X51615726Y-71967866D01*
X51782393Y-71967866D01*
X51882393Y-72001200D01*
X52182393Y-72667866D02*
X52182393Y-72201200D01*
X52182393Y-72267866D02*
X52215726Y-72234533D01*
X52282393Y-72201200D01*
X52382393Y-72201200D01*
X52449060Y-72234533D01*
X52482393Y-72301200D01*
X52482393Y-72667866D01*
X52482393Y-72301200D02*
X52515726Y-72234533D01*
X52582393Y-72201200D01*
X52682393Y-72201200D01*
X52749060Y-72234533D01*
X52782393Y-72301200D01*
X52782393Y-72667866D01*
X53415726Y-72667866D02*
X53415726Y-72301200D01*
X53382393Y-72234533D01*
X53315726Y-72201200D01*
X53182393Y-72201200D01*
X53115726Y-72234533D01*
X53415726Y-72634533D02*
X53349060Y-72667866D01*
X53182393Y-72667866D01*
X53115726Y-72634533D01*
X53082393Y-72567866D01*
X53082393Y-72501200D01*
X53115726Y-72434533D01*
X53182393Y-72401200D01*
X53349060Y-72401200D01*
X53415726Y-72367866D01*
X53749060Y-72667866D02*
X53749060Y-72201200D01*
X53749060Y-72334533D02*
X53782393Y-72267866D01*
X53815726Y-72234533D01*
X53882393Y-72201200D01*
X53949060Y-72201200D01*
X54082393Y-72201200D02*
X54349060Y-72201200D01*
X54182393Y-71967866D02*
X54182393Y-72567866D01*
X54215726Y-72634533D01*
X54282393Y-72667866D01*
X54349060Y-72667866D01*
X55482393Y-72001200D02*
X55415726Y-71967866D01*
X55315726Y-71967866D01*
X55215726Y-72001200D01*
X55149060Y-72067866D01*
X55115726Y-72134533D01*
X55082393Y-72267866D01*
X55082393Y-72367866D01*
X55115726Y-72501200D01*
X55149060Y-72567866D01*
X55215726Y-72634533D01*
X55315726Y-72667866D01*
X55382393Y-72667866D01*
X55482393Y-72634533D01*
X55515726Y-72601200D01*
X55515726Y-72367866D01*
X55382393Y-72367866D01*
X56115726Y-72667866D02*
X56115726Y-72301200D01*
X56082393Y-72234533D01*
X56015726Y-72201200D01*
X55882393Y-72201200D01*
X55815726Y-72234533D01*
X56115726Y-72634533D02*
X56049060Y-72667866D01*
X55882393Y-72667866D01*
X55815726Y-72634533D01*
X55782393Y-72567866D01*
X55782393Y-72501200D01*
X55815726Y-72434533D01*
X55882393Y-72401200D01*
X56049060Y-72401200D01*
X56115726Y-72367866D01*
X56382393Y-72201200D02*
X56749060Y-72201200D01*
X56382393Y-72667866D01*
X56749060Y-72667866D01*
X57549060Y-72667866D02*
X57549060Y-71967866D01*
X57715726Y-71967866D01*
X57815726Y-72001200D01*
X57882393Y-72067866D01*
X57915726Y-72134533D01*
X57949060Y-72267866D01*
X57949060Y-72367866D01*
X57915726Y-72501200D01*
X57882393Y-72567866D01*
X57815726Y-72634533D01*
X57715726Y-72667866D01*
X57549060Y-72667866D01*
X58515726Y-72634533D02*
X58449060Y-72667866D01*
X58315726Y-72667866D01*
X58249060Y-72634533D01*
X58215726Y-72567866D01*
X58215726Y-72301200D01*
X58249060Y-72234533D01*
X58315726Y-72201200D01*
X58449060Y-72201200D01*
X58515726Y-72234533D01*
X58549060Y-72301200D01*
X58549060Y-72367866D01*
X58215726Y-72434533D01*
X58749060Y-72201200D02*
X59015726Y-72201200D01*
X58849060Y-71967866D02*
X58849060Y-72567866D01*
X58882393Y-72634533D01*
X58949060Y-72667866D01*
X59015726Y-72667866D01*
X59515726Y-72634533D02*
X59449060Y-72667866D01*
X59315726Y-72667866D01*
X59249060Y-72634533D01*
X59215726Y-72567866D01*
X59215726Y-72301200D01*
X59249060Y-72234533D01*
X59315726Y-72201200D01*
X59449060Y-72201200D01*
X59515726Y-72234533D01*
X59549060Y-72301200D01*
X59549060Y-72367866D01*
X59215726Y-72434533D01*
X60149060Y-72634533D02*
X60082393Y-72667866D01*
X59949060Y-72667866D01*
X59882393Y-72634533D01*
X59849060Y-72601200D01*
X59815726Y-72534533D01*
X59815726Y-72334533D01*
X59849060Y-72267866D01*
X59882393Y-72234533D01*
X59949060Y-72201200D01*
X60082393Y-72201200D01*
X60149060Y-72234533D01*
X60349060Y-72201200D02*
X60615726Y-72201200D01*
X60449060Y-71967866D02*
X60449060Y-72567866D01*
X60482393Y-72634533D01*
X60549060Y-72667866D01*
X60615726Y-72667866D01*
X60949060Y-72667866D02*
X60882393Y-72634533D01*
X60849060Y-72601200D01*
X60815726Y-72534533D01*
X60815726Y-72334533D01*
X60849060Y-72267866D01*
X60882393Y-72234533D01*
X60949060Y-72201200D01*
X61049060Y-72201200D01*
X61115726Y-72234533D01*
X61149060Y-72267866D01*
X61182393Y-72334533D01*
X61182393Y-72534533D01*
X61149060Y-72601200D01*
X61115726Y-72634533D01*
X61049060Y-72667866D01*
X60949060Y-72667866D01*
X61482393Y-72667866D02*
X61482393Y-72201200D01*
X61482393Y-72334533D02*
X61515726Y-72267866D01*
X61549060Y-72234533D01*
X61615726Y-72201200D01*
X61682393Y-72201200D01*
D11*
%TO.C,R2*%
X63337221Y-65784000D02*
X63662779Y-65784000D01*
X63337221Y-66804000D02*
X63662779Y-66804000D01*
%TO.C,C2*%
X74267600Y-69123879D02*
X74267600Y-68798321D01*
X75287600Y-69123879D02*
X75287600Y-68798321D01*
%TO.C,C1*%
X75702379Y-59387200D02*
X75376821Y-59387200D01*
X75702379Y-58367200D02*
X75376821Y-58367200D01*
%TO.C,C3*%
X51551500Y-51850500D02*
X51551500Y-52475500D01*
X51239000Y-52163000D02*
X51864000Y-52163000D01*
X52104000Y-55543563D02*
X53168437Y-56608000D01*
X52104000Y-52152437D02*
X53168437Y-51088000D01*
X52104000Y-52152437D02*
X52104000Y-52788000D01*
X52104000Y-55543563D02*
X52104000Y-54908000D01*
X53168437Y-56608000D02*
X57624000Y-56608000D01*
X53168437Y-51088000D02*
X57624000Y-51088000D01*
X57624000Y-51088000D02*
X57624000Y-52788000D01*
X57624000Y-56608000D02*
X57624000Y-54908000D01*
%TO.C,C4*%
X71465221Y-66804000D02*
X71790779Y-66804000D01*
X71465221Y-65784000D02*
X71790779Y-65784000D01*
%TO.C,C5*%
X77747400Y-62956221D02*
X77747400Y-63281779D01*
X78767400Y-62956221D02*
X78767400Y-63281779D01*
%TO.C,C6*%
X81383600Y-63256379D02*
X81383600Y-62930821D01*
X80363600Y-63256379D02*
X80363600Y-62930821D01*
%TO.C,J1*%
X62370000Y-69596000D02*
X62370000Y-68266000D01*
X62370000Y-68266000D02*
X63700000Y-68266000D01*
X62370000Y-70866000D02*
X64970000Y-70866000D01*
X64970000Y-70866000D02*
X64970000Y-68266000D01*
X64970000Y-68266000D02*
X72650000Y-68266000D01*
X72650000Y-73466000D02*
X72650000Y-68266000D01*
X62370000Y-73466000D02*
X72650000Y-73466000D01*
X62370000Y-73466000D02*
X62370000Y-70866000D01*
%TO.C,J2*%
X59066000Y-57376000D02*
X59066000Y-59976000D01*
X44366000Y-57376000D02*
X59066000Y-57376000D01*
X59066000Y-66576000D02*
X57166000Y-66576000D01*
X59066000Y-63876000D02*
X59066000Y-66576000D01*
X44366000Y-66576000D02*
X44366000Y-57376000D01*
X53166000Y-66576000D02*
X44366000Y-66576000D01*
X58216000Y-57176000D02*
X59266000Y-57176000D01*
X59266000Y-58226000D02*
X59266000Y-57176000D01*
D12*
%TO.C,Q1*%
X65650000Y-63942000D02*
G75*
G03*
X65650000Y-63942000I-125000J0D01*
G01*
D13*
X64200000Y-62685993D02*
X64200000Y-63298007D01*
X63522695Y-61472000D02*
X62800000Y-61472000D01*
X62800000Y-63635993D02*
X62800000Y-64512000D01*
X62800000Y-61472000D02*
X62800000Y-62348007D01*
X63522695Y-64512000D02*
X62800000Y-64512000D01*
D11*
%TO.C,R1*%
X67782221Y-66804000D02*
X68107779Y-66804000D01*
X67782221Y-65784000D02*
X68107779Y-65784000D01*
%TO.C,R3*%
X75702379Y-54430200D02*
X75376821Y-54430200D01*
X75702379Y-55450200D02*
X75376821Y-55450200D01*
%TO.C,R4*%
X75376821Y-57355200D02*
X75702379Y-57355200D01*
X75376821Y-56335200D02*
X75702379Y-56335200D01*
%TO.C,R5*%
X75676879Y-66778600D02*
X75351321Y-66778600D01*
X75676879Y-65758600D02*
X75351321Y-65758600D01*
%TO.C,R6*%
X78932821Y-65758600D02*
X79258379Y-65758600D01*
X78932821Y-66778600D02*
X79258379Y-66778600D01*
%TO.C,R7*%
X81383600Y-69123879D02*
X81383600Y-68798321D01*
X80363600Y-69123879D02*
X80363600Y-68798321D01*
%TO.C,U1*%
X71388039Y-50832144D02*
X70497084Y-51723098D01*
X72165856Y-51609961D02*
X71388039Y-50832144D01*
X71274902Y-52500916D02*
X72165856Y-51609961D01*
X70497371Y-51723326D02*
G75*
G03*
X71274902Y-52500916I-2997371J-3774674D01*
G01*
D14*
%TO.C,U2*%
X77566601Y-61512600D02*
G75*
G03*
X77566601Y-61512600I-125001J0D01*
G01*
D13*
X74216600Y-62862600D02*
X77116600Y-62862600D01*
X74216600Y-62562600D02*
X77116600Y-62562600D01*
X74216600Y-62562600D02*
X74216600Y-62862600D01*
X77116600Y-62562600D02*
X77116600Y-62862600D01*
D11*
%TO.C,U3*%
X76998600Y-70095600D02*
X78398600Y-70095600D01*
X78398600Y-67775600D02*
X76498600Y-67775600D01*
%TO.C,R2*%
D13*
X60533333Y-66752380D02*
X60200000Y-66276190D01*
X59961904Y-66752380D02*
X59961904Y-65752380D01*
X60342857Y-65752380D01*
X60438095Y-65800000D01*
X60485714Y-65847619D01*
X60533333Y-65942857D01*
X60533333Y-66085714D01*
X60485714Y-66180952D01*
X60438095Y-66228571D01*
X60342857Y-66276190D01*
X59961904Y-66276190D01*
X60914285Y-65847619D02*
X60961904Y-65800000D01*
X61057142Y-65752380D01*
X61295238Y-65752380D01*
X61390476Y-65800000D01*
X61438095Y-65847619D01*
X61485714Y-65942857D01*
X61485714Y-66038095D01*
X61438095Y-66180952D01*
X60866666Y-66752380D01*
X61485714Y-66752380D01*
%TO.C,C2*%
X74533333Y-71657142D02*
X74485714Y-71704761D01*
X74342857Y-71752380D01*
X74247619Y-71752380D01*
X74104761Y-71704761D01*
X74009523Y-71609523D01*
X73961904Y-71514285D01*
X73914285Y-71323809D01*
X73914285Y-71180952D01*
X73961904Y-70990476D01*
X74009523Y-70895238D01*
X74104761Y-70800000D01*
X74247619Y-70752380D01*
X74342857Y-70752380D01*
X74485714Y-70800000D01*
X74533333Y-70847619D01*
X74914285Y-70847619D02*
X74961904Y-70800000D01*
X75057142Y-70752380D01*
X75295238Y-70752380D01*
X75390476Y-70800000D01*
X75438095Y-70847619D01*
X75485714Y-70942857D01*
X75485714Y-71038095D01*
X75438095Y-71180952D01*
X74866666Y-71752380D01*
X75485714Y-71752380D01*
%TO.C,C1*%
X78333333Y-59257142D02*
X78285714Y-59304761D01*
X78142857Y-59352380D01*
X78047619Y-59352380D01*
X77904761Y-59304761D01*
X77809523Y-59209523D01*
X77761904Y-59114285D01*
X77714285Y-58923809D01*
X77714285Y-58780952D01*
X77761904Y-58590476D01*
X77809523Y-58495238D01*
X77904761Y-58400000D01*
X78047619Y-58352380D01*
X78142857Y-58352380D01*
X78285714Y-58400000D01*
X78333333Y-58447619D01*
X79285714Y-59352380D02*
X78714285Y-59352380D01*
X79000000Y-59352380D02*
X79000000Y-58352380D01*
X78904761Y-58495238D01*
X78809523Y-58590476D01*
X78714285Y-58638095D01*
%TO.C,C3*%
X54633333Y-52657142D02*
X54585714Y-52704761D01*
X54442857Y-52752380D01*
X54347619Y-52752380D01*
X54204761Y-52704761D01*
X54109523Y-52609523D01*
X54061904Y-52514285D01*
X54014285Y-52323809D01*
X54014285Y-52180952D01*
X54061904Y-51990476D01*
X54109523Y-51895238D01*
X54204761Y-51800000D01*
X54347619Y-51752380D01*
X54442857Y-51752380D01*
X54585714Y-51800000D01*
X54633333Y-51847619D01*
X54966666Y-51752380D02*
X55585714Y-51752380D01*
X55252380Y-52133333D01*
X55395238Y-52133333D01*
X55490476Y-52180952D01*
X55538095Y-52228571D01*
X55585714Y-52323809D01*
X55585714Y-52561904D01*
X55538095Y-52657142D01*
X55490476Y-52704761D01*
X55395238Y-52752380D01*
X55109523Y-52752380D01*
X55014285Y-52704761D01*
X54966666Y-52657142D01*
%TO.C,C4*%
X70733333Y-67957142D02*
X70685714Y-68004761D01*
X70542857Y-68052380D01*
X70447619Y-68052380D01*
X70304761Y-68004761D01*
X70209523Y-67909523D01*
X70161904Y-67814285D01*
X70114285Y-67623809D01*
X70114285Y-67480952D01*
X70161904Y-67290476D01*
X70209523Y-67195238D01*
X70304761Y-67100000D01*
X70447619Y-67052380D01*
X70542857Y-67052380D01*
X70685714Y-67100000D01*
X70733333Y-67147619D01*
X71590476Y-67385714D02*
X71590476Y-68052380D01*
X71352380Y-67004761D02*
X71114285Y-67719047D01*
X71733333Y-67719047D01*
%TO.C,C5*%
X78333333Y-61157142D02*
X78285714Y-61204761D01*
X78142857Y-61252380D01*
X78047619Y-61252380D01*
X77904761Y-61204761D01*
X77809523Y-61109523D01*
X77761904Y-61014285D01*
X77714285Y-60823809D01*
X77714285Y-60680952D01*
X77761904Y-60490476D01*
X77809523Y-60395238D01*
X77904761Y-60300000D01*
X78047619Y-60252380D01*
X78142857Y-60252380D01*
X78285714Y-60300000D01*
X78333333Y-60347619D01*
X79238095Y-60252380D02*
X78761904Y-60252380D01*
X78714285Y-60728571D01*
X78761904Y-60680952D01*
X78857142Y-60633333D01*
X79095238Y-60633333D01*
X79190476Y-60680952D01*
X79238095Y-60728571D01*
X79285714Y-60823809D01*
X79285714Y-61061904D01*
X79238095Y-61157142D01*
X79190476Y-61204761D01*
X79095238Y-61252380D01*
X78857142Y-61252380D01*
X78761904Y-61204761D01*
X78714285Y-61157142D01*
%TO.C,C6*%
X80633333Y-61157142D02*
X80585714Y-61204761D01*
X80442857Y-61252380D01*
X80347619Y-61252380D01*
X80204761Y-61204761D01*
X80109523Y-61109523D01*
X80061904Y-61014285D01*
X80014285Y-60823809D01*
X80014285Y-60680952D01*
X80061904Y-60490476D01*
X80109523Y-60395238D01*
X80204761Y-60300000D01*
X80347619Y-60252380D01*
X80442857Y-60252380D01*
X80585714Y-60300000D01*
X80633333Y-60347619D01*
X81490476Y-60252380D02*
X81300000Y-60252380D01*
X81204761Y-60300000D01*
X81157142Y-60347619D01*
X81061904Y-60490476D01*
X81014285Y-60680952D01*
X81014285Y-61061904D01*
X81061904Y-61157142D01*
X81109523Y-61204761D01*
X81204761Y-61252380D01*
X81395238Y-61252380D01*
X81490476Y-61204761D01*
X81538095Y-61157142D01*
X81585714Y-61061904D01*
X81585714Y-60823809D01*
X81538095Y-60728571D01*
X81490476Y-60680952D01*
X81395238Y-60633333D01*
X81204761Y-60633333D01*
X81109523Y-60680952D01*
X81061904Y-60728571D01*
X81014285Y-60823809D01*
%TO.C,J1*%
X73466666Y-72152380D02*
X73466666Y-72866666D01*
X73419047Y-73009523D01*
X73323809Y-73104761D01*
X73180952Y-73152380D01*
X73085714Y-73152380D01*
X74466666Y-73152380D02*
X73895238Y-73152380D01*
X74180952Y-73152380D02*
X74180952Y-72152380D01*
X74085714Y-72295238D01*
X73990476Y-72390476D01*
X73895238Y-72438095D01*
%TO.C,J2*%
X54766666Y-61352380D02*
X54766666Y-62066666D01*
X54719047Y-62209523D01*
X54623809Y-62304761D01*
X54480952Y-62352380D01*
X54385714Y-62352380D01*
X55195238Y-61447619D02*
X55242857Y-61400000D01*
X55338095Y-61352380D01*
X55576190Y-61352380D01*
X55671428Y-61400000D01*
X55719047Y-61447619D01*
X55766666Y-61542857D01*
X55766666Y-61638095D01*
X55719047Y-61780952D01*
X55147619Y-62352380D01*
X55766666Y-62352380D01*
%TO.C,Q1*%
X66107261Y-63547619D02*
X66012023Y-63500000D01*
X65916785Y-63404761D01*
X65773928Y-63261904D01*
X65678690Y-63214285D01*
X65583452Y-63214285D01*
X65631071Y-63452380D02*
X65535833Y-63404761D01*
X65440595Y-63309523D01*
X65392976Y-63119047D01*
X65392976Y-62785714D01*
X65440595Y-62595238D01*
X65535833Y-62500000D01*
X65631071Y-62452380D01*
X65821547Y-62452380D01*
X65916785Y-62500000D01*
X66012023Y-62595238D01*
X66059642Y-62785714D01*
X66059642Y-63119047D01*
X66012023Y-63309523D01*
X65916785Y-63404761D01*
X65821547Y-63452380D01*
X65631071Y-63452380D01*
X67012023Y-63452380D02*
X66440595Y-63452380D01*
X66726309Y-63452380D02*
X66726309Y-62452380D01*
X66631071Y-62595238D01*
X66535833Y-62690476D01*
X66440595Y-62738095D01*
%TO.C,R1*%
X67333333Y-68052380D02*
X67000000Y-67576190D01*
X66761904Y-68052380D02*
X66761904Y-67052380D01*
X67142857Y-67052380D01*
X67238095Y-67100000D01*
X67285714Y-67147619D01*
X67333333Y-67242857D01*
X67333333Y-67385714D01*
X67285714Y-67480952D01*
X67238095Y-67528571D01*
X67142857Y-67576190D01*
X66761904Y-67576190D01*
X68285714Y-68052380D02*
X67714285Y-68052380D01*
X68000000Y-68052380D02*
X68000000Y-67052380D01*
X67904761Y-67195238D01*
X67809523Y-67290476D01*
X67714285Y-67338095D01*
%TO.C,R3*%
X78333333Y-57352380D02*
X78000000Y-56876190D01*
X77761904Y-57352380D02*
X77761904Y-56352380D01*
X78142857Y-56352380D01*
X78238095Y-56400000D01*
X78285714Y-56447619D01*
X78333333Y-56542857D01*
X78333333Y-56685714D01*
X78285714Y-56780952D01*
X78238095Y-56828571D01*
X78142857Y-56876190D01*
X77761904Y-56876190D01*
X78666666Y-56352380D02*
X79285714Y-56352380D01*
X78952380Y-56733333D01*
X79095238Y-56733333D01*
X79190476Y-56780952D01*
X79238095Y-56828571D01*
X79285714Y-56923809D01*
X79285714Y-57161904D01*
X79238095Y-57257142D01*
X79190476Y-57304761D01*
X79095238Y-57352380D01*
X78809523Y-57352380D01*
X78714285Y-57304761D01*
X78666666Y-57257142D01*
%TO.C,R4*%
X78333333Y-55452380D02*
X78000000Y-54976190D01*
X77761904Y-55452380D02*
X77761904Y-54452380D01*
X78142857Y-54452380D01*
X78238095Y-54500000D01*
X78285714Y-54547619D01*
X78333333Y-54642857D01*
X78333333Y-54785714D01*
X78285714Y-54880952D01*
X78238095Y-54928571D01*
X78142857Y-54976190D01*
X77761904Y-54976190D01*
X79190476Y-54785714D02*
X79190476Y-55452380D01*
X78952380Y-54404761D02*
X78714285Y-55119047D01*
X79333333Y-55119047D01*
%TO.C,R5*%
X73733333Y-68052380D02*
X73400000Y-67576190D01*
X73161904Y-68052380D02*
X73161904Y-67052380D01*
X73542857Y-67052380D01*
X73638095Y-67100000D01*
X73685714Y-67147619D01*
X73733333Y-67242857D01*
X73733333Y-67385714D01*
X73685714Y-67480952D01*
X73638095Y-67528571D01*
X73542857Y-67576190D01*
X73161904Y-67576190D01*
X74638095Y-67052380D02*
X74161904Y-67052380D01*
X74114285Y-67528571D01*
X74161904Y-67480952D01*
X74257142Y-67433333D01*
X74495238Y-67433333D01*
X74590476Y-67480952D01*
X74638095Y-67528571D01*
X74685714Y-67623809D01*
X74685714Y-67861904D01*
X74638095Y-67957142D01*
X74590476Y-68004761D01*
X74495238Y-68052380D01*
X74257142Y-68052380D01*
X74161904Y-68004761D01*
X74114285Y-67957142D01*
%TO.C,R6*%
X77683333Y-65152380D02*
X77350000Y-64676190D01*
X77111904Y-65152380D02*
X77111904Y-64152380D01*
X77492857Y-64152380D01*
X77588095Y-64200000D01*
X77635714Y-64247619D01*
X77683333Y-64342857D01*
X77683333Y-64485714D01*
X77635714Y-64580952D01*
X77588095Y-64628571D01*
X77492857Y-64676190D01*
X77111904Y-64676190D01*
X78540476Y-64152380D02*
X78350000Y-64152380D01*
X78254761Y-64200000D01*
X78207142Y-64247619D01*
X78111904Y-64390476D01*
X78064285Y-64580952D01*
X78064285Y-64961904D01*
X78111904Y-65057142D01*
X78159523Y-65104761D01*
X78254761Y-65152380D01*
X78445238Y-65152380D01*
X78540476Y-65104761D01*
X78588095Y-65057142D01*
X78635714Y-64961904D01*
X78635714Y-64723809D01*
X78588095Y-64628571D01*
X78540476Y-64580952D01*
X78445238Y-64533333D01*
X78254761Y-64533333D01*
X78159523Y-64580952D01*
X78111904Y-64628571D01*
X78064285Y-64723809D01*
%TO.C,R7*%
X80633333Y-72752380D02*
X80300000Y-72276190D01*
X80061904Y-72752380D02*
X80061904Y-71752380D01*
X80442857Y-71752380D01*
X80538095Y-71800000D01*
X80585714Y-71847619D01*
X80633333Y-71942857D01*
X80633333Y-72085714D01*
X80585714Y-72180952D01*
X80538095Y-72228571D01*
X80442857Y-72276190D01*
X80061904Y-72276190D01*
X80966666Y-71752380D02*
X81633333Y-71752380D01*
X81204761Y-72752380D01*
%TO.C,U1*%
X66738095Y-54950380D02*
X66738095Y-55759904D01*
X66785714Y-55855142D01*
X66833333Y-55902761D01*
X66928571Y-55950380D01*
X67119047Y-55950380D01*
X67214285Y-55902761D01*
X67261904Y-55855142D01*
X67309523Y-55759904D01*
X67309523Y-54950380D01*
X68309523Y-55950380D02*
X67738095Y-55950380D01*
X68023809Y-55950380D02*
X68023809Y-54950380D01*
X67928571Y-55093238D01*
X67833333Y-55188476D01*
X67738095Y-55236095D01*
%TO.C,U2*%
X72140595Y-62852380D02*
X72140595Y-63661904D01*
X72188214Y-63757142D01*
X72235833Y-63804761D01*
X72331071Y-63852380D01*
X72521547Y-63852380D01*
X72616785Y-63804761D01*
X72664404Y-63757142D01*
X72712023Y-63661904D01*
X72712023Y-62852380D01*
X73140595Y-62947619D02*
X73188214Y-62900000D01*
X73283452Y-62852380D01*
X73521547Y-62852380D01*
X73616785Y-62900000D01*
X73664404Y-62947619D01*
X73712023Y-63042857D01*
X73712023Y-63138095D01*
X73664404Y-63280952D01*
X73092976Y-63852380D01*
X73712023Y-63852380D01*
%TO.C,U3*%
X76938095Y-70752380D02*
X76938095Y-71561904D01*
X76985714Y-71657142D01*
X77033333Y-71704761D01*
X77128571Y-71752380D01*
X77319047Y-71752380D01*
X77414285Y-71704761D01*
X77461904Y-71657142D01*
X77509523Y-71561904D01*
X77509523Y-70752380D01*
X77890476Y-70752380D02*
X78509523Y-70752380D01*
X78176190Y-71133333D01*
X78319047Y-71133333D01*
X78414285Y-71180952D01*
X78461904Y-71228571D01*
X78509523Y-71323809D01*
X78509523Y-71561904D01*
X78461904Y-71657142D01*
X78414285Y-71704761D01*
X78319047Y-71752380D01*
X78033333Y-71752380D01*
X77938095Y-71704761D01*
X77890476Y-71657142D01*
%TD*%
M02*
